<svg width="150" height="100" viewBox="0 0 150 100" fill="none" xmlns="http://www.w3.org/2000/svg">
<path d="M100 100C127.614 100 150 77.6142 150 50C150 22.3858 127.614 0 100 0C90.8928 0 82.3543 2.43486 75 6.68911C89.945 15.3343 100 31.4929 100 50C100 68.5071 89.945 84.6657 75 93.3109C82.3543 97.5651 90.8928 100 100 100Z" fill="#2E7B70"/>
<path fill-rule="evenodd" clip-rule="evenodd" d="M75 6.68911C60.055 15.3343 50 31.4929 50 50C50 68.5071 60.055 84.6657 75 93.3109C67.6457 97.5651 59.1072 100 50 100C22.3858 100 0 77.6142 0 50C0 22.3858 22.3858 0 50 0C59.1072 0 67.6457 2.43486 75 6.68911Z" fill="#F88D2B"/>
<path d="M75 6.68911C60.055 15.3343 50 31.4929 50 50C50 68.5071 60.055 84.6657 75 93.3109C89.945 84.6657 100 68.5071 100 50C100 31.4929 89.945 15.3343 75 6.68911Z" fill="white"/>
</svg>
