<svg width="957" height="409" viewBox="0 0 957 409" fill="none" xmlns="http://www.w3.org/2000/svg">
<path d="M484 172.265C492.023 172.265 499.8 172.221 507.698 173.729C518.219 175.739 529.314 175.128 539.937 175.166C575.647 175.294 611.365 176.698 647.067 176.549C673.926 176.437 700.696 176.657 727.543 176.657M610.408 81C611.835 86.7103 613.17 92.4432 613.309 98.3528C613.575 109.654 616.176 120.766 613.716 132.028C611.156 143.745 609.776 155.763 606.856 167.384C602.661 184.075 598.285 200.735 593.814 217.355C592.433 222.488 591.141 227.706 588.689 232.457C584.82 239.955 579.594 246.828 574.834 253.769C566.856 265.4 560.432 277.854 551.135 288.61C541.54 299.712 527.004 306.949 514.368 314.016C505.681 318.874 496.418 321.908 487.416 326M604.063 168.849C607.459 173.674 608.85 179.176 611.14 184.52C611.702 185.831 612.592 186.897 613.336 188.099C616.066 192.511 617.939 197.473 620.278 202.09C629.193 219.688 639.508 236.672 650.049 253.335C654.813 260.866 659.814 268.482 665.45 275.406C675.058 287.208 686.736 295.783 698.879 304.702L699.452 305.122C703.991 308.456 708.878 312.719 714.365 314.287M765.123 319.167C765.401 316.388 768.972 314.413 770.628 312.416C772.995 309.561 775.663 306.993 778.057 304.173C783.379 297.906 786.055 288.142 788.55 280.584C793.39 265.926 795.448 250.645 798.962 235.657C801.825 223.447 804.836 211.54 804.927 198.945C805.007 187.878 806.928 176.695 805.795 165.649C804.625 154.244 804.802 142.879 803.87 131.486C803.558 127.679 802.819 123.634 801.24 120.125C800.958 119.499 798.852 115.502 800.291 115.272C801.053 115.15 802.904 115.498 803.328 115.57C807.666 116.308 811.948 117.354 816.315 117.929C824.949 119.066 833.627 118.382 842.291 118.2C852.339 117.99 862.398 118.315 872.443 117.983C880.549 117.715 888.737 116.938 896.846 117.17C906.927 117.458 916.897 118.303 927.024 118.065C930.633 117.98 934.232 117.604 937.843 117.604C940.53 117.604 939.793 119.283 939.551 121.752C938.442 133.087 936.022 144.04 938.656 155.292C940.625 163.7 939.849 172.754 939.849 181.321C939.849 190.582 939.665 199.826 939.47 209.085C939.134 225.005 939.041 241.03 939.605 256.941C939.905 265.399 939.849 273.858 939.849 282.32C939.849 287.911 940.119 293.699 938.548 299.13C932.088 321.457 906.664 320.631 888.115 320.631M811.489 236.199C819.261 238.41 827.113 239.286 835.079 240.429C839.567 241.073 843.904 242.377 848.419 242.923C857.704 244.048 867.15 244.169 876.483 243.71C891.466 242.973 906.302 242.544 921.303 242.544M816.858 173.729C847.905 174.986 879.096 176.657 910.186 176.657C914.84 176.657 918.896 176.646 923.255 175.193" stroke="#9FE000" stroke-width="33" stroke-linecap="round"/>
<path fill-rule="evenodd" clip-rule="evenodd" d="M318.938 11.3914C314.636 17.654 308.744 25.4001 305.84 28.6109C302.937 31.8217 299.355 35.3398 297.872 36.4418L295.17 38.434C277.929 30.1156 269.823 26.5446 266.029 25.1352C262.246 23.7258 254.373 21.331 248.545 19.8157C242.716 18.3004 233.656 16.3188 228.411 15.4181C223.166 14.5174 212.919 13.4789 205.628 13.1186C197.935 12.7371 187.275 12.9809 180.196 13.7014C173.499 14.3902 162.765 16.0539 156.354 17.4103C149.943 18.7666 140.173 21.4158 134.631 23.2914C129.099 25.1776 119.319 29.2149 112.908 32.2561C106.497 35.308 97.9135 39.8433 93.8338 42.3547C89.7541 44.8661 82.8556 49.5922 78.511 52.8666C74.1558 56.1303 66.3461 62.8592 61.1538 67.8184C55.9508 72.7776 48.7239 80.4072 45.0787 84.773C41.444 89.1494 35.7536 96.7684 32.4475 101.728C29.1413 106.687 24.1291 115.27 21.3104 120.802C18.4917 126.344 14.4014 135.637 12.2291 141.465C10.0568 147.293 6.952 157.307 5.33072 163.718C3.70943 170.129 1.83383 179.899 1.17684 185.441C0.509252 190.983 -0.0205789 203.137 0.000614315 212.462C0.0218076 222.052 0.742378 234.016 1.65369 240.014C2.53321 245.842 4.66313 255.856 6.36919 262.267C8.08584 268.678 10.6608 277.028 12.102 280.811C13.5431 284.594 16.0015 290.56 17.5698 294.056C19.1381 297.553 22.5714 304.229 25.1994 308.892C29.9149 317.242 29.9573 317.39 27.838 318.959C26.6617 319.827 24.0973 321.767 22.1476 323.25C20.1978 324.734 17.5274 328.072 16.2241 330.668C14.571 333.974 13.861 337.28 13.8504 341.741C13.8504 346.33 14.5816 349.646 16.489 353.662C17.9407 356.725 21.8721 362.002 25.2206 365.393C28.5691 368.773 34.1747 373.478 37.6716 375.841C41.1685 378.194 45.937 381.087 48.2683 382.263C50.5995 383.45 55.368 384.986 58.8649 385.685C63.6969 386.65 66.8759 386.671 72.1107 385.76C75.9043 385.092 81.8596 383.174 85.3565 381.489L91.7144 378.437C100.753 383.895 106.709 387.148 110.788 389.172C114.868 391.206 122.741 394.565 128.273 396.632C133.815 398.698 143.108 401.57 148.936 403.022C154.764 404.473 163.115 406.296 167.48 407.08C172.461 407.97 183.746 408.5 197.681 408.5C211.615 408.5 222.901 407.97 227.881 407.08C232.258 406.296 240.597 404.473 246.425 403.022C252.253 401.57 261.557 398.698 267.089 396.632C272.631 394.555 280.97 390.952 285.633 388.61C290.295 386.279 297.925 381.987 302.587 379.084C307.25 376.18 313.926 371.634 317.423 368.975C320.919 366.315 329.195 358.865 335.818 352.412C342.431 345.959 350.76 336.867 354.32 332.204C357.891 327.542 363.168 319.912 366.061 315.25C368.943 310.587 373.797 301.527 376.838 295.116C379.879 288.705 384.044 278.214 386.099 271.804C388.155 265.393 390.889 254.902 392.161 248.491C393.793 240.3 394.64 231.165 395.043 217.761C395.403 205.702 395.128 194.787 394.312 188.09C393.602 182.262 392.076 173.202 390.931 167.957C389.787 162.711 387.17 153.407 385.124 147.293C383.09 141.179 378.862 130.921 375.746 124.51C372.642 118.099 367.598 109.039 364.556 104.377C361.515 99.7143 356.386 92.5615 353.165 88.4818C349.944 84.4021 345.779 79.4005 343.914 77.3554C340.661 73.7949 340.417 72.926 338.203 56.1621C336.931 46.551 334.229 29.9779 332.205 19.3388C330.181 8.69983 328.125 0 327.648 0C327.172 0 323.251 5.12877 318.938 11.3914ZM281.924 73.5406C289.204 69.8106 299.461 63.4738 304.707 59.4471C309.952 55.431 314.583 52.093 314.996 52.0294C315.409 51.9765 315.992 54.668 316.31 58.0165C316.617 61.3651 317.677 71.7392 318.662 81.0642C319.892 92.6569 320.474 107.736 320.527 128.749C320.57 147.431 320.04 164.672 319.192 172.725C318.419 180.016 316.85 191.216 315.706 197.627C314.562 204.038 312.432 214.052 310.959 219.88C309.496 225.708 307.091 234.058 305.618 238.424C304.145 242.801 300.203 252.094 296.865 259.088C293.527 266.081 288.25 275.618 285.135 280.281C282.019 284.943 274.421 293.813 268.244 299.98C262.076 306.158 253.451 313.607 249.074 316.532C244.709 319.457 237.672 323.579 233.444 325.698C229.216 327.817 221.587 330.816 216.49 332.363C208.468 334.8 205.215 335.193 192.382 335.277C179.857 335.362 176.223 335.002 169.07 332.946C164.407 331.6 156.778 328.665 152.115 326.429C147.453 324.183 140.067 319.774 135.69 316.648C131.325 313.512 126.301 309.835 125.57 309.422C125.57 309.422 123.25 312.177 119.615 317.634C116.595 322.148 111.424 329.184 108.107 333.264C104.791 337.344 98.7824 343.786 94.7663 347.569C90.7501 351.352 85.0809 356.025 82.1669 357.954C79.2634 359.872 74.2512 362.182 71.051 363.083C67.8508 363.984 64.0254 364.407 62.5737 364.015C61.122 363.623 57.3072 361.79 54.1176 359.936C50.9174 358.092 45.5555 353.949 42.207 350.748C38.3286 347.05 36.0927 344.051 36.0927 342.536C36.0821 340.968 37.269 339.431 39.526 338.075C41.4228 336.93 47.3781 334.79 52.7718 333.306C58.1655 331.823 65.3182 329.386 68.6668 327.891C72.0153 326.397 77.8646 323.112 81.6476 320.59C85.4306 318.079 91.5131 312.865 95.1583 309.008C98.8036 305.162 103.689 299.673 108.616 289.818L100.425 281.076C96.1756 276.561 90.6018 269.758 88.0268 265.975C85.4624 262.192 81.8278 255.75 79.9628 251.67C78.0978 247.59 75.7665 240.914 74.7598 236.835C73.3823 231.165 73.0538 226.291 73.4035 216.171C73.7955 204.504 74.283 201.664 77.4938 192.329C79.5071 186.501 83.2901 177.97 85.8969 173.382C88.5778 168.677 94.406 161.037 99.238 155.898C103.954 150.875 110.396 144.771 113.543 142.323C116.691 139.886 123.08 135.584 127.743 132.765C132.405 129.957 141.349 125.39 147.612 122.635C153.874 119.88 168.9 114.316 180.991 110.269C193.082 106.231 212.272 99.9792 223.642 96.3975C235.013 92.8053 249.795 87.7189 256.492 85.0909C263.189 82.463 274.633 77.26 281.924 73.5406Z" fill="#9FE000"/>
<path d="M125.571 309.677L108.616 290.073C108.616 290.073 183.421 172.452 222.629 158.676C222.629 158.676 232.067 156.557 237.365 164.504C242.663 172.452 242.663 179.869 242.663 179.869C175.576 198.943 125.571 309.677 125.571 309.677Z" fill="#9FE000"/>
<path fill-rule="evenodd" clip-rule="evenodd" d="M318.938 11.3914C314.636 17.654 308.744 25.4001 305.84 28.6109C302.937 31.8217 299.355 35.3398 297.872 36.4418L295.17 38.434C277.929 30.1156 269.823 26.5446 266.029 25.1352C262.246 23.7258 254.373 21.331 248.545 19.8157C242.716 18.3004 233.656 16.3188 228.411 15.4181C223.166 14.5174 212.919 13.4789 205.628 13.1186C197.935 12.7371 187.275 12.9809 180.196 13.7014C173.499 14.3902 162.765 16.0539 156.354 17.4103C149.943 18.7666 140.173 21.4158 134.631 23.2914C129.099 25.1776 119.319 29.2149 112.908 32.2561C106.497 35.308 97.9135 39.8433 93.8338 42.3547C89.7541 44.8661 82.8556 49.5922 78.511 52.8666C74.1558 56.1303 66.3461 62.8592 61.1538 67.8184C55.9508 72.7776 48.7239 80.4072 45.0787 84.773C41.444 89.1494 35.7536 96.7684 32.4475 101.728C29.1413 106.687 24.1291 115.27 21.3104 120.802C18.4917 126.344 14.4014 135.637 12.2291 141.465C10.0568 147.293 6.952 157.307 5.33072 163.718C3.70943 170.129 1.83383 179.899 1.17684 185.441C0.509252 190.983 -0.0205789 203.137 0.000614315 212.462C0.0218076 222.052 0.742378 234.016 1.65369 240.014C2.53321 245.842 4.66313 255.856 6.36919 262.267C8.08584 268.678 10.6608 277.028 12.102 280.811C13.5431 284.594 16.0015 290.56 17.5698 294.056C19.1381 297.553 22.5714 304.229 25.1994 308.892C29.9149 317.242 29.9573 317.39 27.838 318.959C26.6617 319.827 24.0973 321.767 22.1476 323.25C20.1978 324.734 17.5274 328.072 16.2241 330.668C14.571 333.974 13.861 337.28 13.8504 341.741C13.8504 346.33 14.5816 349.646 16.489 353.662C17.9407 356.725 21.8721 362.002 25.2206 365.393C28.5691 368.773 34.1747 373.478 37.6716 375.841C41.1685 378.194 45.937 381.087 48.2683 382.263C50.5995 383.45 55.368 384.986 58.8649 385.685C63.6969 386.65 66.8759 386.671 72.1107 385.76C75.9043 385.092 81.8596 383.174 85.3565 381.489L91.7144 378.437C100.753 383.895 106.709 387.148 110.788 389.172C114.868 391.206 122.741 394.565 128.273 396.632C133.815 398.698 143.108 401.57 148.936 403.022C154.764 404.473 163.115 406.296 167.48 407.08C172.461 407.97 183.746 408.5 197.681 408.5C211.615 408.5 222.901 407.97 227.881 407.08C232.258 406.296 240.597 404.473 246.425 403.022C252.253 401.57 261.557 398.698 267.089 396.632C272.631 394.555 280.97 390.952 285.633 388.61C290.295 386.279 297.925 381.987 302.587 379.084C307.25 376.18 313.926 371.634 317.423 368.975C320.919 366.315 329.195 358.865 335.818 352.412C342.431 345.959 350.76 336.867 354.32 332.204C357.891 327.542 363.168 319.912 366.061 315.25C368.943 310.587 373.797 301.527 376.838 295.116C379.879 288.705 384.044 278.214 386.099 271.804C388.155 265.393 390.889 254.902 392.161 248.491C393.793 240.3 394.64 231.165 395.043 217.761C395.403 205.702 395.128 194.787 394.312 188.09C393.602 182.262 392.076 173.202 390.931 167.957C389.787 162.711 387.17 153.407 385.124 147.293C383.09 141.179 378.862 130.921 375.746 124.51C372.642 118.099 367.598 109.039 364.556 104.377C361.515 99.7143 356.386 92.5615 353.165 88.4818C349.944 84.4021 345.779 79.4005 343.914 77.3554C340.661 73.7949 340.417 72.926 338.203 56.1621C336.931 46.551 334.229 29.9779 332.205 19.3388C330.181 8.69983 328.125 0 327.648 0C327.172 0 323.251 5.12877 318.938 11.3914ZM281.924 73.5406C289.204 69.8106 299.461 63.4738 304.707 59.4471C309.952 55.431 314.583 52.093 314.996 52.0294C315.409 51.9765 315.992 54.668 316.31 58.0165C316.617 61.3651 317.677 71.7392 318.662 81.0642C319.892 92.6569 320.474 107.736 320.527 128.749C320.57 147.431 320.04 164.672 319.192 172.725C318.419 180.016 316.85 191.216 315.706 197.627C314.562 204.038 312.432 214.052 310.959 219.88C309.496 225.708 307.091 234.058 305.618 238.424C304.145 242.801 300.203 252.094 296.865 259.088C293.527 266.081 288.25 275.618 285.135 280.281C282.019 284.943 274.421 293.813 268.244 299.98C262.076 306.158 253.451 313.607 249.074 316.532C244.709 319.457 237.672 323.579 233.444 325.698C229.216 327.817 221.587 330.816 216.49 332.363C208.468 334.8 205.215 335.193 192.382 335.277C179.857 335.362 176.223 335.002 169.07 332.946C164.407 331.6 156.778 328.665 152.115 326.429C147.453 324.183 140.067 319.774 135.69 316.648C131.325 313.512 126.301 309.835 125.57 309.422C125.57 309.422 123.25 312.177 119.615 317.634C116.595 322.148 111.424 329.184 108.107 333.264C104.791 337.344 98.7824 343.786 94.7663 347.569C90.7501 351.352 85.0809 356.025 82.1669 357.954C79.2634 359.872 74.2512 362.182 71.051 363.083C67.8508 363.984 64.0254 364.407 62.5737 364.015C61.122 363.623 57.3072 361.79 54.1176 359.936C50.9174 358.092 45.5555 353.949 42.207 350.748C38.3286 347.05 36.0927 344.051 36.0927 342.536C36.0821 340.968 37.269 339.431 39.526 338.075C41.4228 336.93 47.3781 334.79 52.7718 333.306C58.1655 331.823 65.3182 329.386 68.6668 327.891C72.0153 326.397 77.8646 323.112 81.6476 320.59C85.4306 318.079 91.5131 312.865 95.1583 309.008C98.8036 305.162 103.689 299.673 108.616 289.818L100.425 281.076C96.1756 276.561 90.6018 269.758 88.0268 265.975C85.4624 262.192 81.8278 255.75 79.9628 251.67C78.0978 247.59 75.7665 240.914 74.7598 236.835C73.3823 231.165 73.0538 226.291 73.4035 216.171C73.7955 204.504 74.283 201.664 77.4938 192.329C79.5071 186.501 83.2901 177.97 85.8969 173.382C88.5778 168.677 94.406 161.037 99.238 155.898C103.954 150.875 110.396 144.771 113.543 142.323C116.691 139.886 123.08 135.584 127.743 132.765C132.405 129.957 141.349 125.39 147.612 122.635C153.874 119.88 168.9 114.316 180.991 110.269C193.082 106.231 212.272 99.9792 223.642 96.3975C235.013 92.8053 249.795 87.7189 256.492 85.0909C263.189 82.463 274.633 77.26 281.924 73.5406Z" stroke="#9FE000"/>
<path d="M125.571 309.677L108.616 290.073C108.616 290.073 183.421 172.452 222.629 158.676C222.629 158.676 232.067 156.557 237.365 164.504C242.663 172.452 242.663 179.869 242.663 179.869C175.576 198.943 125.571 309.677 125.571 309.677Z" stroke="#9FE000"/>
</svg>
