<svg width="503" height="411" viewBox="0 0 503 411" fill="none" xmlns="http://www.w3.org/2000/svg">
<mask id="path-1-outside-1_672_247" maskUnits="userSpaceOnUse" x="2" y="-0.968018" width="497" height="101" fill="black">
<rect fill="white" x="2" y="-0.968018" width="497" height="101"/>
<path d="M20.608 71.096V54.456H36.352C41.5573 54.456 45.44 53.432 48 51.384C50.56 49.2506 51.84 45.752 51.84 40.888C51.84 36.28 50.6453 32.8666 48.256 30.648C45.952 28.344 42.4107 27.192 37.632 27.192H20.608V10.552H38.784C43.648 10.552 48.1707 11.1493 52.352 12.344C56.5333 13.4533 60.16 15.2453 63.232 17.72C66.3893 20.1946 68.8213 23.3093 70.528 27.064C72.32 30.8186 73.216 35.3413 73.216 40.632C73.216 47.3733 71.68 53.0053 68.608 57.528C65.6213 62.0506 61.2693 65.464 55.552 67.768C49.8347 69.9866 42.8373 71.096 34.56 71.096H20.608ZM5.12 95.032V10.552H25.856V95.032H5.12ZM110.471 96.824C103.986 96.824 98.2257 95.544 93.191 92.984C88.1563 90.3386 84.231 86.4133 81.415 81.208C78.599 75.9173 77.191 69.304 77.191 61.368C77.191 53.0906 78.6417 46.3493 81.543 41.144C84.5297 35.8533 88.5403 31.9706 93.575 29.496C98.695 26.936 104.455 25.656 110.855 25.656C117.511 25.656 123.314 26.9786 128.263 29.624C133.298 32.184 137.18 36.1093 139.911 41.4C142.727 46.6053 144.135 53.2186 144.135 61.24C144.135 69.5173 142.642 76.3013 139.655 81.592C136.754 86.7973 132.743 90.6373 127.623 93.112C122.588 95.5866 116.871 96.824 110.471 96.824ZM110.983 81.592C113.628 81.592 115.847 80.8666 117.639 79.416C119.431 77.88 120.796 75.6613 121.735 72.76C122.674 69.8586 123.143 66.4026 123.143 62.392C123.143 57.9546 122.631 54.2426 121.607 51.256C120.583 48.184 119.09 45.8373 117.127 44.216C115.25 42.5946 112.946 41.784 110.215 41.784C107.655 41.784 105.479 42.552 103.687 44.088C101.895 45.5386 100.53 47.7146 99.591 50.616C98.6523 53.5173 98.183 57.016 98.183 61.112C98.183 67.5973 99.2923 72.632 101.511 76.216C103.815 79.8 106.972 81.592 110.983 81.592ZM151.608 95.032V58.296V27.448H169.528V54.328H170.552C171.064 47.16 172.045 41.528 173.496 37.432C175.032 33.2506 176.909 30.3066 179.128 28.6C181.432 26.808 183.992 25.912 186.808 25.912C188.344 25.912 189.923 26.1253 191.544 26.552C193.251 26.9786 194.915 27.6613 196.536 28.6L195.512 51.64C193.635 50.5306 191.8 49.72 190.008 49.208C188.216 48.6106 186.509 48.312 184.888 48.312C182.157 48.312 179.853 49.08 177.976 50.616C176.099 52.152 174.648 54.4133 173.624 57.4C172.685 60.3866 172.216 64.0133 172.216 68.28V95.032H151.608ZM230.616 96.568C222.68 96.568 216.749 94.5626 212.824 90.552C208.984 86.456 207.064 80.1413 207.064 71.608V43.576H199.64V30.52H200.024C205.315 29.8373 209.069 28.088 211.288 25.272C213.507 22.3706 214.872 18.0186 215.384 12.216V11.96H227.544V27.448H243.032V44.088H227.544V69.688C227.544 72.9306 228.312 75.2346 229.848 76.6C231.469 77.9653 233.432 78.648 235.736 78.648C236.931 78.648 238.168 78.4773 239.448 78.136C240.728 77.7946 241.923 77.3253 243.032 76.728V94.776C240.387 95.544 238.04 96.0133 235.992 96.184C233.944 96.44 232.152 96.568 230.616 96.568ZM256.877 95.032V53.688H247.533V38.84L268.141 40.248V39.224C262.936 38.6266 259.01 37.3893 256.365 35.512C253.72 33.6346 251.928 31.5013 250.989 29.112C250.136 26.7226 249.709 24.5466 249.709 22.584C249.709 18.744 250.733 15.416 252.781 12.6C254.914 9.69864 257.816 7.47998 261.485 5.94398C265.24 4.40798 269.464 3.63998 274.157 3.63998C277.997 3.63998 281.41 4.15198 284.397 5.17598C287.469 6.19998 290.242 7.69331 292.717 9.65598L291.053 28.6C288.749 26.9786 286.53 25.784 284.397 25.016C282.264 24.1626 280.088 23.736 277.869 23.736C275.309 23.736 273.176 24.2906 271.469 25.4C269.848 26.5093 269.037 28.2586 269.037 30.648C269.037 31.928 269.378 33.1226 270.061 34.232C270.744 35.3413 271.81 36.2373 273.261 36.92C274.797 37.5173 276.845 37.816 279.405 37.816H292.205V53.688H277.357V95.032H256.877ZM329.471 96.824C322.986 96.824 317.226 95.544 312.191 92.984C307.156 90.3386 303.231 86.4133 300.415 81.208C297.599 75.9173 296.191 69.304 296.191 61.368C296.191 53.0906 297.642 46.3493 300.543 41.144C303.53 35.8533 307.54 31.9706 312.575 29.496C317.695 26.936 323.455 25.656 329.855 25.656C336.511 25.656 342.314 26.9786 347.263 29.624C352.298 32.184 356.18 36.1093 358.911 41.4C361.727 46.6053 363.135 53.2186 363.135 61.24C363.135 69.5173 361.642 76.3013 358.655 81.592C355.754 86.7973 351.743 90.6373 346.623 93.112C341.588 95.5866 335.871 96.824 329.471 96.824ZM329.983 81.592C332.628 81.592 334.847 80.8666 336.639 79.416C338.431 77.88 339.796 75.6613 340.735 72.76C341.674 69.8586 342.143 66.4026 342.143 62.392C342.143 57.9546 341.631 54.2426 340.607 51.256C339.583 48.184 338.09 45.8373 336.127 44.216C334.25 42.5946 331.946 41.784 329.215 41.784C326.655 41.784 324.479 42.552 322.687 44.088C320.895 45.5386 319.53 47.7146 318.591 50.616C317.6523 53.5173 317.183 57.016 317.183 61.112C317.183 67.5973 318.2923 72.632 320.511 76.216C322.815 79.8 325.972 81.592 329.983 81.592ZM370.608 95.032V5.43198H391.344V95.032H370.608ZM400.608 95.032V27.448H421.344V95.032H400.608ZM410.848 22.584C406.923 22.584 403.893 21.7733 401.76 20.152C399.712 18.4453 398.688 16.0133 398.688 12.856C398.688 9.61331 399.712 7.18131 401.76 5.55997C403.893 3.85331 406.923 2.99998 410.848 2.99998C414.859 2.99998 417.888 3.85331 419.936 5.55997C422.069 7.26664 423.136 9.69865 423.136 12.856C423.136 15.928 422.069 18.3173 419.936 20.024C417.888 21.7306 414.859 22.584 410.848 22.584ZM462.096 96.824C455.611 96.824 449.851 95.544 444.816 92.984C439.781 90.3386 435.856 86.4133 433.04 81.208C430.224 75.9173 428.816 69.304 428.816 61.368C428.816 53.0906 430.267 46.3493 433.168 41.144C436.155 35.8533 440.165 31.9706 445.2 29.496C450.32 26.936 456.08 25.656 462.48 25.656C469.136 25.656 474.939 26.9786 479.888 29.624C484.923 32.184 488.805 36.1093 491.536 41.4C494.352 46.6053 495.76 53.2186 495.76 61.24C495.76 69.5173 494.267 76.3013 491.28 81.592C488.379 86.7973 484.368 90.6373 479.248 93.112C474.213 95.5866 468.496 96.824 462.096 96.824ZM462.608 81.592C465.253 81.592 467.472 80.8666 469.264 79.416C471.056 77.88 472.421 75.6613 473.36 72.76C474.299 69.8586 474.768 66.4026 474.768 62.392C474.768 57.9546 474.256 54.2426 473.232 51.256C472.208 48.184 470.715 45.8373 468.752 44.216C466.875 42.5946 464.571 41.784 461.84 41.784C459.28 41.784 457.104 42.552 455.312 44.088C453.52 45.5386 452.155 47.7146 451.216 50.616C450.277 53.5173 449.808 57.016 449.808 61.112C449.808 67.5973 450.917 72.632 453.136 76.216C455.44 79.8 458.597 81.592 462.608 81.592Z"/>
</mask>
<path d="M20.608 71.096H17.608V74.096H20.608V71.096ZM20.608 54.456V51.456H17.608V54.456H20.608ZM48 51.384L49.8741 53.7266L49.8975 53.7078L49.9206 53.6886L48 51.384ZM48.256 30.648L46.1347 32.7693L46.174 32.8086L46.2146 32.8464L48.256 30.648ZM20.608 27.192H17.608V30.192H20.608V27.192ZM20.608 10.552V7.55198H17.608V10.552H20.608ZM52.352 12.344L51.5278 15.2286L51.5552 15.2364L51.5827 15.2437L52.352 12.344ZM63.232 17.72L61.35 20.0562L61.3656 20.0688L61.3814 20.0811L63.232 17.72ZM70.528 27.064L67.7969 28.3054L67.8085 28.3309L67.8206 28.3562L70.528 27.064ZM68.608 57.528L66.1264 55.8423L66.1154 55.8585L66.1046 55.8748L68.608 57.528ZM55.552 67.768L56.6373 70.5648L56.6554 70.5578L56.6733 70.5505L55.552 67.768ZM5.12 95.032H2.12V98.032H5.12V95.032ZM5.12 10.552V7.55198H2.12V10.552H5.12ZM25.856 10.552H28.856V7.55198H25.856V10.552ZM25.856 95.032V98.032H28.856V95.032H25.856ZM20.608 71.096H23.608V54.456H20.608H17.608V71.096H20.608ZM20.608 54.456V57.456H36.352V54.456V51.456H20.608V54.456ZM36.352 54.456V57.456C41.8637 57.456 46.5491 56.3866 49.8741 53.7266L48 51.384L46.1259 49.0414C44.3309 50.4774 41.251 51.456 36.352 51.456V54.456ZM48 51.384L49.9206 53.6886C53.4328 50.7618 54.84 46.2213 54.84 40.888H51.84H48.84C48.84 45.2827 47.6872 47.7395 46.0795 49.0793L48 51.384ZM51.84 40.888H54.84C54.84 35.7985 53.5158 31.4381 50.2974 28.4496L48.256 30.648L46.2146 32.8464C47.7749 34.2952 48.84 36.7615 48.84 40.888H51.84ZM48.256 30.648L50.3773 28.5267C47.2942 25.4435 42.8362 24.192 37.632 24.192V27.192V30.192C41.9852 30.192 44.6099 31.2445 46.1347 32.7693L48.256 30.648ZM37.632 27.192V24.192H20.608V27.192V30.192H37.632V27.192ZM20.608 27.192H23.608V10.552H20.608H17.608V27.192H20.608ZM20.608 10.552V13.552H38.784V10.552V7.55198H20.608V10.552ZM38.784 10.552V13.552C43.4018 13.552 47.6441 14.1189 51.5278 15.2286L52.352 12.344L53.1762 9.45941C48.6972 8.17971 43.8942 7.55198 38.784 7.55198V10.552ZM52.352 12.344L51.5827 15.2437C55.3974 16.2557 58.6358 17.8698 61.35 20.0562L63.232 17.72L65.114 15.3837C61.6842 12.6208 57.6693 10.6509 53.1213 9.44429L52.352 12.344ZM63.232 17.72L61.3814 20.0811C64.1487 22.2501 66.2838 24.9765 67.7969 28.3054L70.528 27.064L73.2591 25.8226C71.3589 21.6422 68.63 18.1392 65.0826 15.3588L63.232 17.72ZM70.528 27.064L67.8206 28.3562C69.375 31.6131 70.216 35.6708 70.216 40.632H73.216H76.216C76.216 35.0118 75.265 30.0242 73.2354 25.7718L70.528 27.064ZM73.216 40.632H70.216C70.216 46.9134 68.7891 51.9222 66.1264 55.8423L68.608 57.528L71.0897 59.2136C74.5709 54.0885 76.216 47.8332 76.216 40.632H73.216ZM68.608 57.528L66.1046 55.8748C63.4981 59.8218 59.6637 62.8766 54.4307 64.9854L55.552 67.768L56.6733 70.5505C62.875 68.0514 67.7446 64.2795 71.1114 59.1812L68.608 57.528ZM55.552 67.768L54.4667 64.9712C49.1932 67.0176 42.5879 68.096 34.56 68.096V71.096V74.096C43.0868 74.096 50.4761 72.9557 56.6373 70.5648L55.552 67.768ZM34.56 71.096V68.096H20.608V71.096V74.096H34.56V71.096ZM5.12 95.032H8.12V10.552H5.12H2.12V95.032H5.12ZM5.12 10.552V13.552H25.856V10.552V7.55198H5.12V10.552ZM25.856 10.552H22.856V95.032H25.856H28.856V10.552H25.856ZM25.856 95.032V92.032H5.12V95.032V98.032H25.856V95.032ZM93.191 92.984L91.7956 95.6397L91.8134 95.649L91.8313 95.6581L93.191 92.984ZM81.415 81.208L78.7668 82.6175L78.7715 82.6265L78.7764 82.6354L81.415 81.208ZM81.543 41.144L78.9305 39.6692L78.9265 39.6763L78.9226 39.6834L81.543 41.144ZM93.575 29.496L94.8984 32.1883L94.9075 32.1838L94.9166 32.1793L93.575 29.496ZM128.263 29.624L126.849 32.2698L126.876 32.2842L126.903 32.2981L128.263 29.624ZM139.911 41.4L137.245 42.7759L137.259 42.8018L137.272 42.8274L139.911 41.4ZM139.655 81.592L137.043 80.1172L137.039 80.1243L137.035 80.1314L139.655 81.592ZM127.623 93.112L126.317 90.4109L126.309 90.4153L126.3 90.4196L127.623 93.112ZM117.639 79.416L119.527 81.7477L119.559 81.7212L119.591 81.6938L117.639 79.416ZM121.735 72.76L118.881 71.8365L118.881 71.8365L121.735 72.76ZM121.607 51.256L118.761 52.2047L118.765 52.2168L118.769 52.229L121.607 51.256ZM117.127 44.216L115.166 46.4865L115.191 46.5079L115.216 46.5289L117.127 44.216ZM103.687 44.088L105.575 46.4197L105.607 46.3932L105.639 46.3657L103.687 44.088Z" fill="#F88D2B" mask="url(#path-1-outside-1_672_247)"/>
</svg>
