<svg width="362" height="211" viewBox="0 0 362 211" fill="none" xmlns="http://www.w3.org/2000/svg">
<path d="M61.828 126.772C60.6253 128.303 59.696 130.325 59.04 132.84C58.4933 135.464 58.3293 137.705 58.548 139.564C57.6733 138.361 57.0173 136.721 56.58 134.644C56.252 132.676 56.252 130.817 56.58 129.068C55.924 130.927 54.9947 132.785 53.792 134.644C52.6987 136.612 51.496 138.088 50.184 139.072C50.6213 137.104 50.5667 134.644 50.02 131.692C49.4733 128.849 48.5987 126.608 47.396 124.968C47.068 127.155 46.084 129.505 44.444 132.02C42.804 134.644 41.0547 136.557 39.196 137.76C40.2893 135.792 40.7813 133.223 40.672 130.052C40.672 126.991 40.1253 124.531 39.032 122.672C38.4853 124.421 37.392 126.335 35.752 128.412C34.112 130.489 32.472 131.856 30.832 132.512C31.816 130.981 32.4173 128.904 32.636 126.28C32.8547 123.656 32.8 121.469 32.472 119.72C30.2853 120.048 28.044 121.196 25.748 123.164C23.452 125.132 21.7027 126.991 20.5 128.74C20.3907 126.663 20.7187 124.148 21.484 121.196C22.2493 118.244 23.3427 116.003 24.764 114.472C22.2493 114.144 19.188 114.472 15.58 115.456C12.0813 116.44 9.45733 117.861 7.708 119.72C8.036 117.205 9.29333 114.472 11.48 111.52C13.6667 108.568 15.7987 106.381 17.876 104.96C16.3453 104.632 14.5413 104.632 12.464 104.96C10.3867 105.288 8.692 105.944 7.38 106.928C8.364 105.616 9.78533 104.468 11.644 103.484C13.5027 102.391 15.1973 101.844 16.728 101.844C14.76 100.423 12.0813 99.6027 8.692 99.384C5.30267 99.1653 2.40533 99.3293 0 99.876C1.85867 98.236 4.428 96.924 7.708 95.94C10.8787 94.956 13.6667 94.628 16.072 94.956C15.6347 92.8787 15.6347 90.4187 16.072 87.576C16.5093 84.7333 17.384 82.4373 18.696 80.688C18.04 82.7653 17.9853 85.2253 18.532 88.068C19.0787 90.9107 20.008 93.2067 21.32 94.956C21.5387 93.644 22.1947 92.004 23.288 90.036C24.3813 88.068 25.42 86.7013 26.404 85.936C26.6227 87.248 27.2787 88.888 28.372 90.856C29.4653 92.824 30.5587 94.1907 31.652 94.956C32.7453 93.7533 33.5107 92.004 33.948 89.708C34.3853 87.412 34.4947 85.3893 34.276 83.64C35.1507 84.8427 35.8613 86.428 36.408 88.396C36.9547 90.2547 37.1733 91.9493 37.064 93.48C37.6107 90.9653 38.6493 88.5053 40.18 86.1C39.6333 84.6787 39.196 83.2573 38.868 81.836C38.6493 80.3053 38.6493 78.9933 38.868 77.9C37.3373 78.556 35.6973 79.704 33.948 81.344C32.308 82.8747 31.1053 84.4053 30.34 85.936C29.9027 84.5147 29.7933 82.7653 30.012 80.688C30.34 78.5013 30.7773 76.6973 31.324 75.276C30.5587 76.6973 29.4107 78.1733 27.88 79.704C26.3493 81.1253 24.8733 82.0547 23.452 82.492C24.764 81.3987 25.912 79.8133 26.896 77.736C27.9893 75.6587 28.536 73.7453 28.536 71.996C27.7707 73.636 26.4587 75.2213 24.6 76.752C22.7413 78.2827 20.9373 79.2667 19.188 79.704C20.7187 78.8293 22.14 77.408 23.452 75.44C24.8733 73.472 25.748 71.6133 26.076 69.864C24.436 71.0667 22.1947 72.0507 19.352 72.816C16.6187 73.5813 14.268 73.8 12.3 73.472C14.0493 72.3787 15.7987 70.7387 17.548 68.552C19.4067 66.256 20.5 64.124 20.828 62.156C19.188 63.2493 17.1107 64.124 14.596 64.78C12.0813 65.3267 9.84 65.436 7.872 65.108C9.84 65.108 11.972 64.5067 14.268 63.304C16.6733 61.992 18.532 60.5707 19.844 59.04C18.3133 59.1493 16.4547 58.876 14.268 58.22C12.0813 57.564 10.4413 56.744 9.348 55.76C10.8787 55.5413 12.5733 54.8307 14.432 53.628C16.4 52.4253 17.7667 51.168 18.532 49.856C16.3453 50.2933 13.8307 50.0747 10.988 49.2C8.14533 48.3253 5.904 47.1773 4.264 45.756C6.34133 46.3027 8.80133 46.4667 11.644 46.248C14.596 45.92 17.056 45.2093 19.024 44.116C18.04 42.2573 16.4 40.3987 14.104 38.54C11.808 36.572 9.62133 35.3147 7.544 34.768C9.40267 33.784 11.8627 33.3467 14.924 33.456C17.9853 33.5653 20.336 34.0027 21.976 34.768C20.2267 34.0027 18.368 32.8 16.4 31.16C14.5413 29.52 13.284 27.8253 12.628 26.076C14.0493 27.4973 15.908 28.7547 18.204 29.848C20.5 30.832 22.632 31.4333 24.6 31.652C23.3973 30.34 22.3587 28.4267 21.484 25.912C20.6093 23.3973 20.2267 21.32 20.336 19.68C21.4293 20.992 23.2333 22.1947 25.748 23.288C28.2627 24.272 30.3947 24.6547 32.144 24.436C30.9413 23.0147 29.9573 21.156 29.192 18.86C28.536 16.4547 28.0987 14.0493 27.88 11.644C27.7707 9.12933 27.9347 6.94267 28.372 5.084C28.9187 6.94267 29.9027 8.856 31.324 10.824C32.8547 12.792 34.5493 14.5413 36.408 16.072C38.376 17.6027 40.2347 18.696 41.984 19.352C42.968 16.6187 43.132 13.3387 42.476 9.512C41.9293 5.68534 40.9453 2.51467 39.524 0C41.3827 1.20266 43.0773 3.06133 44.608 5.576C46.1387 8.09066 47.232 10.66 47.888 13.284C47.9973 9.348 48.7627 6.12267 50.184 3.608C50.512 5.576 51.2773 7.81734 52.48 10.332C53.6827 12.8467 55.104 14.7053 56.744 15.908C58.1653 14.596 59.368 12.5733 60.352 9.84C61.336 6.99733 61.7187 4.64667 61.5 2.788C62.9213 4.1 64.1787 6.068 65.272 8.69201C66.4747 11.2067 67.1307 13.448 67.24 15.416C68.552 13.9947 69.7547 11.972 70.848 9.348C71.9413 6.724 72.4333 4.428 72.324 2.46C73.5267 3.99066 74.4013 6.17733 74.948 9.02C75.604 11.8627 75.6587 14.2133 75.112 16.072C76.6427 15.088 78.1187 13.5027 79.54 11.316C80.9613 9.12934 81.836 7.10667 82.164 5.248C83.2573 6.77867 83.9133 8.856 84.132 11.48C84.46 14.104 84.46 16.3453 84.132 18.204C86.5373 16.892 88.9973 14.76 91.512 11.808C94.136 8.856 95.8307 6.01333 96.596 3.28C97.3613 5.02933 97.7987 7.10667 97.908 9.512C98.0173 11.9173 97.8533 14.3227 97.416 16.728C96.9787 19.1333 96.2133 21.1013 95.12 22.632C97.6347 21.648 100.259 20.008 102.992 17.712C105.835 15.3067 107.912 12.956 109.224 10.66C109.552 13.284 109.115 16.4 107.912 20.008C106.819 23.5067 105.343 26.1853 103.484 28.044C105.78 28.2627 108.513 27.88 111.684 26.896C114.964 25.912 117.533 24.7093 119.392 23.288C119.392 24.8187 118.955 26.568 118.08 28.536C117.315 30.504 116.331 32.3627 115.128 34.112C113.925 35.752 112.668 37.0093 111.356 37.884C113.433 36.7907 116.057 36.3533 119.228 36.572C122.508 36.7907 125.187 37.5013 127.264 38.704C124.968 38.8133 122.399 39.688 119.556 41.328C116.823 42.968 114.745 44.6627 113.324 46.412C113.105 47.6147 112.285 49.1453 110.864 51.004C109.443 52.7533 108.185 53.8467 107.092 54.284C106.764 53.1907 105.889 51.7147 104.468 49.856C103.156 47.9973 101.953 46.8493 100.86 46.412C99.3293 47.6147 98.072 49.5827 97.088 52.316C96.104 54.94 95.612 57.236 95.612 59.204C94.8467 58.4387 94.0813 57.4 93.316 56.088C93.8627 57.2907 94.2453 58.548 94.464 59.86C94.6827 61.0627 94.7373 62.0467 94.628 62.812C96.1587 62.2653 97.7987 61.0627 99.548 59.204C101.297 57.3453 102.445 55.6507 102.992 54.12C103.757 55.6507 104.14 57.6733 104.14 60.188C104.249 62.7027 103.921 64.7253 103.156 66.256C105.452 65.6 107.857 64.2333 110.372 62.156C112.996 59.9693 114.8 57.8373 115.784 55.76C115.893 58.056 115.401 60.7893 114.308 63.96C113.215 67.1307 111.848 69.536 110.208 71.176C111.739 69.4267 113.98 67.896 116.932 66.584C119.884 65.1627 122.508 64.452 124.804 64.452C122.727 65.5453 120.649 67.3493 118.572 69.864C116.495 72.2693 115.128 74.62 114.472 76.916C116.768 75.604 119.72 74.8933 123.328 74.784C126.936 74.5653 130.052 74.784 132.676 75.44C130.052 75.768 127.1 76.8613 123.82 78.72C120.649 80.5787 118.408 82.656 117.096 84.952C118.955 85.0613 121.141 85.6627 123.656 86.756C126.28 87.8493 128.139 89.1613 129.232 90.692C127.483 90.692 125.296 91.2933 122.672 92.496C120.048 93.6987 118.189 95.0653 117.096 96.596C118.627 98.7827 120.923 100.86 123.984 102.828C127.045 104.796 129.888 106.053 132.512 106.6C130.107 107.584 127.045 107.967 123.328 107.748C119.611 107.42 116.604 106.6 114.308 105.288C114.527 107.147 115.401 109.224 116.932 111.52C118.463 113.816 119.939 115.565 121.36 116.768C119.501 117.096 117.26 116.877 114.636 116.112C112.012 115.237 109.935 114.253 108.404 113.16C108.623 115.675 109.661 118.353 111.52 121.196C113.488 123.929 115.565 126.007 117.752 127.428C115.347 126.553 112.832 125.023 110.208 122.836C107.693 120.649 105.944 118.408 104.96 116.112C104.96 118.736 105.78 121.579 107.42 124.64C109.06 127.701 110.864 130.107 112.832 131.856C110.427 130.763 108.021 128.959 105.616 126.444C103.211 123.82 101.735 121.251 101.188 118.736C100.204 120.485 99.712 122.945 99.712 126.116C99.8213 129.287 100.259 131.856 101.024 133.824C99.056 133.059 96.8693 131.637 94.464 129.56C92.168 127.483 90.5827 125.515 89.708 123.656C90.8013 125.952 91.6213 128.74 92.168 132.02C92.7147 135.409 92.496 138.307 91.512 140.712C91.7307 138.197 91.0747 135.409 89.544 132.348C88.0133 129.287 86.3733 126.827 84.624 124.968C83.312 126.28 82.2733 128.248 81.508 130.872C80.7427 133.605 80.4147 135.901 80.524 137.76C78.884 136.885 77.244 135.245 75.604 132.84C74.0733 130.544 73.1987 128.521 72.98 126.772C71.34 129.068 70.2467 132.129 69.7 135.956C69.2627 139.783 69.4813 143.063 70.356 145.796C68.8253 143.391 67.404 140.329 66.092 136.612C64.8893 132.895 63.468 129.615 61.828 126.772ZM69.044 46.74C68.8253 46.8493 68.552 46.9587 68.224 47.068C68.9893 48.708 69.5907 50.676 70.028 52.972C70.4653 55.1587 70.4653 56.9627 70.028 58.384C70.9027 57.4 71.668 56.1427 72.324 54.612C71.996 55.1587 71.668 55.7053 71.34 56.252C70.4653 54.5027 70.028 52.152 70.028 49.2C70.1373 46.1387 70.5747 43.7333 71.34 41.984C70.028 42.64 68.8253 44.0067 67.732 46.084H67.896C68.3333 46.3027 68.716 46.5213 69.044 46.74ZM80.688 47.232C80.1413 49.0907 80.1413 51.332 80.688 53.956C81.2347 56.58 82.0547 58.6573 83.148 60.188C84.46 59.7507 85.9907 58.6573 87.74 56.908C89.4893 55.1587 90.5827 53.628 91.02 52.316C91.348 52.5347 91.676 52.9173 92.004 53.464C91.02 51.168 90.4733 49.0907 90.364 47.232C90.1453 49.856 89.38 52.0427 88.068 53.792C88.1773 52.6987 88.0133 51.4413 87.576 50.02C87.1387 48.4893 86.5373 47.2867 85.772 46.412C84.788 47.724 84.0773 49.4733 83.64 51.66C83.312 53.8467 83.3667 55.7053 83.804 57.236C83.0387 55.8147 82.3827 54.0653 81.836 51.988C81.3987 49.8013 81.3987 47.9427 81.836 46.412C80.7427 46.8493 79.5947 47.5053 78.392 48.38C77.1893 49.2547 76.0413 50.2933 74.948 51.496C75.1667 52.9173 75.2213 54.448 75.112 56.088C75.6587 54.448 76.424 52.808 77.408 51.168C78.5013 49.528 79.5947 48.216 80.688 47.232ZM64.124 49.2C64.0147 49.528 63.96 49.8013 63.96 50.02C64.3973 49.4733 64.8347 48.9813 65.272 48.544C64.8347 48.7627 64.452 48.9813 64.124 49.2ZM57.892 54.776C59.4227 54.2293 61.172 52.972 63.14 51.004C63.0307 50.676 62.8667 50.4027 62.648 50.184C60.4613 51.7147 58.876 53.2453 57.892 54.776ZM53.792 90.2C54.2293 91.184 54.5027 92.5507 54.612 94.3C54.7213 95.94 54.5573 97.3067 54.12 98.4C55.3227 97.8533 56.5253 96.8693 57.728 95.448C59.04 94.0267 59.9147 92.66 60.352 91.348C60.7893 92.988 60.8987 94.8467 60.68 96.924C61.1173 95.8307 61.7187 94.792 62.484 93.808C63.2493 92.824 64.0147 92.1133 64.78 91.676C64.5613 92.66 64.616 93.8627 64.944 95.284C65.3813 93.972 65.5453 92.332 65.436 90.364C64.3427 90.1453 63.3587 89.9267 62.484 89.708C63.3587 89.4893 64.288 89.2707 65.272 89.052C65.0533 86.8653 64.616 85.0067 63.96 83.476C63.5227 85.2253 62.4293 87.248 60.68 89.544C58.9307 91.84 57.236 93.3707 55.596 94.136C55.7053 92.3867 55.2133 90.1453 54.12 87.412C53.136 84.6787 52.0427 82.7107 50.84 81.508C49.7467 81.9453 48.38 82.82 46.74 84.132C45.2093 85.3347 43.952 86.592 42.968 87.904C43.5147 89.216 44.1707 90.528 44.936 91.84C45.7013 93.152 46.4667 94.1907 47.232 94.956C48.3253 94.8467 49.5827 94.3 51.004 93.316C52.4253 92.2227 53.3547 91.184 53.792 90.2ZM76.752 86.592C75.9867 87.1387 75.276 87.7947 74.62 88.56C74.8387 88.56 75.0573 88.6147 75.276 88.724C75.7133 87.8493 76.2053 87.1387 76.752 86.592ZM67.896 101.516C67.24 98.7827 67.4587 95.8853 68.552 92.824C68.552 92.496 68.552 92.0587 68.552 91.512C68.3333 91.4027 68.06 91.2933 67.732 91.184C66.8573 93.152 65.928 94.5733 64.944 95.448C65.6 98.1813 66.584 100.204 67.896 101.516ZM73.308 95.284C73.308 94.8467 73.3627 94.464 73.472 94.136C72.816 93.6987 72.16 93.316 71.504 92.988C71.0667 93.7533 70.684 94.5187 70.356 95.284C71.2307 97.7987 72.3787 99.6573 73.8 100.86C74.2373 99.1107 74.292 96.9787 73.964 94.464C73.7453 94.6827 73.5267 94.956 73.308 95.284Z" fill="#2E7B70"/>
<path d="M335.036 39.0213C335.021 43.9834 335.67 48.8758 336.981 53.6984C338.411 58.3746 339.583 63.1449 340.496 68.0094C342.128 75.8819 343.826 83.7475 345.591 91.6061C347.355 99.4648 349.119 107.323 350.884 115.182C352.418 122.126 354.092 129.123 355.905 136.172C357.705 143.089 359.114 150.113 360.131 157.246C360.815 161.196 361.167 165.181 361.187 169.201C361.326 173.074 360.456 176.92 358.578 180.737C358.474 181.016 358.376 181.361 358.285 181.773C358.313 182.038 358.275 182.311 358.17 182.59C358.002 186.093 357.495 188.291 356.651 189.185C355.82 190.21 353.674 190.838 350.212 191.068C347.428 191.361 344.622 191.454 341.796 191.349C338.969 191.244 336.129 191.006 333.275 190.636C330.951 190.21 328.536 190.196 326.03 190.593C323.525 190.99 321.072 191.248 318.671 191.366C316.535 191.457 314.333 191.554 312.065 191.659C309.944 191.882 307.794 191.839 305.617 191.532C298.156 190.707 293.676 186.352 292.177 178.465C291.194 172.938 290.277 167.403 289.427 161.862C288.709 156.306 288.116 150.671 287.65 144.955C287.594 144.424 287.545 143.96 287.503 143.563C287.447 143.032 287.266 142.582 286.959 142.212C286.555 140.914 285.947 140.24 285.138 140.191C284.594 140.114 284.143 140.296 283.787 140.735C283.564 141.161 283.341 141.587 283.117 142.013C282.133 144.127 281.288 146.294 280.583 148.513C279.878 150.732 279.172 152.951 278.467 155.171C278.376 155.582 278.293 156.06 278.216 156.605C278.125 157.017 277.961 157.369 277.723 157.662C276.935 159.086 276.013 160.523 274.959 161.975C274.038 163.412 272.642 164.162 270.771 164.225C269.166 164.259 267.962 163.648 267.16 162.392C266.358 161.136 265.555 159.879 264.753 158.623C264.111 157.618 263.535 156.606 263.026 155.587C262.635 154.421 262.192 153.395 261.697 152.509C261.362 151.874 260.954 151.179 260.473 150.426C260.124 149.658 259.492 149.389 258.578 149.619C257.65 149.717 257.028 150.184 256.714 151.022C256.519 151.713 256.323 152.403 256.128 153.094C255.234 157.344 254.273 161.601 253.247 165.865C252.353 170.116 251.731 174.404 251.381 178.731C251.109 182.513 250.703 186.31 250.165 190.12C249.627 193.931 249.03 197.815 248.373 201.772C248.066 203.949 247.152 205.453 245.63 206.283C244.241 207.099 242.699 207.731 241.003 208.177C238.511 208.707 235.873 209.118 233.088 209.411C230.45 209.823 227.798 210.101 225.132 210.247C222.85 210.219 221.657 209.071 221.552 206.803C221.615 206.126 221.553 205.529 221.364 205.013C221.308 204.482 221.186 203.959 220.998 203.442C218.033 196.916 216.181 190.14 215.443 183.112C214.823 175.937 213.812 168.871 212.41 161.912C211.768 158.36 211.326 154.787 211.082 151.193C210.971 147.584 210.919 143.903 210.927 140.148C211.179 132.346 210.57 124.634 209.099 117.013C207.746 109.245 206.732 101.508 206.056 93.8035C205.533 87.5573 205.018 81.3773 204.509 75.2636C204.001 69.1499 204.023 62.9805 204.575 56.7554C204.855 54.3128 204.869 51.898 204.618 49.5112C204.353 46.9917 204.567 44.5561 205.258 42.2043C205.844 40.1316 207.045 38.7988 208.86 38.2059C211.47 37.5293 214.073 36.7865 216.67 35.9773C219.384 35.0216 221.974 34.1462 224.438 33.351C225.854 32.7999 227.173 32.5942 228.395 32.734C229.749 32.8598 231.057 33.1915 232.32 33.7291C238.782 36.5356 245.192 39.4818 251.549 42.5675C257.907 45.6532 264.146 48.8855 270.266 52.2642C273.699 54.3166 276.428 53.4935 278.452 49.795C280.267 46.6547 282.163 43.6401 284.138 40.7511C286.232 37.7156 288.414 34.872 290.682 32.2203C291.527 31.3271 292.26 30.6468 292.881 30.1793C293.621 29.5653 294.308 30.3645 294.943 32.5769C295.347 33.8751 295.948 34.4823 296.743 34.3987C297.539 34.3151 298.401 34.2245 299.329 34.1269C304.354 33.4647 309.218 32.5512 313.922 31.3865C318.759 30.2078 323.61 29.1617 328.474 28.2482C331.363 27.6764 333.101 27.6278 333.687 28.1025C334.406 28.5632 334.793 30.3325 334.849 33.4102C334.946 34.3384 334.977 35.2736 334.942 36.2158C335.04 37.144 335.071 38.0792 335.036 39.0213ZM216.259 49.2932C219.721 49.0634 222.338 48.4532 224.111 47.4624C225.5 46.6461 226.435 45.3412 226.917 43.5477C227.517 41.6076 227.389 39.7442 226.531 37.9574C225.819 36.2893 224.88 35.6506 223.715 36.0413C222.549 36.4319 221.443 36.7493 220.396 36.9934C218.833 37.4258 217.217 37.9978 215.549 38.7094C214 39.2745 212.45 39.8395 210.901 40.4046C209.589 40.6766 208.849 41.2906 208.681 42.2467C208.499 43.0702 208.398 44.0193 208.377 45.0941C208.475 46.0223 208.698 46.8703 209.047 47.638C209.514 48.2592 210.292 48.6467 211.381 48.8004C212.456 48.8215 213.405 48.9228 214.228 49.1044C215.038 49.1534 215.715 49.2163 216.259 49.2932ZM292.722 42.061C292.715 40.721 292.722 39.5137 292.744 38.4389C292.897 37.3502 292.555 36.6488 291.718 36.3346C290.748 36.0343 289.973 36.3169 289.394 37.1822C288.801 37.9149 288.273 38.6406 287.813 39.3594C286.64 40.9574 285.541 42.6147 284.514 44.3314C283.621 46.0341 282.661 47.7438 281.635 49.4605C279.82 52.6007 277.806 54.4882 275.594 55.123C273.5 55.6112 270.89 55.0141 267.763 53.3316C262.495 50.3996 257.24 47.6002 251.999 44.9334C246.877 42.1201 241.465 39.7394 235.764 37.7914C232.693 36.6394 230.847 36.2971 230.226 36.7646C229.591 37.0995 229.27 39.1443 229.262 42.899C229.185 43.4433 229.115 44.054 229.052 44.7309C229.108 45.2613 229.038 45.872 228.843 46.5629C228.347 48.2238 228.846 49.7802 230.339 51.2321C232.684 53.1307 234.718 55.2631 236.441 57.6292C238.283 59.8489 240.192 62.0615 242.166 64.2672C246.702 69.1532 250.927 74.2729 254.841 79.6264C258.756 84.9799 263.04 90.0264 267.694 94.7658C269.494 96.5876 270.66 97.4707 271.19 97.4149C271.721 97.3592 272.537 96.2008 273.64 93.9398C276.649 88.1268 279.379 82.209 281.829 76.1865C284.28 70.164 286.877 64.2602 289.621 58.4751C290.933 55.6558 292.12 52.9167 293.181 50.2579C294.243 47.5991 294.089 44.8668 292.722 42.061ZM327.552 164.893C327.196 167.88 327.164 170.766 327.457 173.551C327.882 176.321 328.248 179.165 328.555 182.083C328.694 183.409 329.064 184.375 329.664 184.982C330.41 185.708 331.283 186.354 332.281 186.92C335.819 188.693 339.371 189.325 342.937 188.816C346.517 188.44 350.105 188.13 353.699 187.886C354.362 187.816 354.924 187.422 355.385 186.703C355.859 186.117 355.936 185.573 355.615 185.07C354.666 183.695 354.387 182.317 354.778 180.935C355.302 179.539 355.361 178.192 354.957 176.894C353.625 170.599 352.691 164.262 352.154 157.883C351.737 151.358 350.729 144.961 349.132 138.694C346.642 129.035 344.55 119.333 342.855 109.591C341.28 99.7011 340.367 89.7419 340.117 79.7131C340.097 78.2405 340.01 76.7749 339.856 75.3163C339.689 73.7251 339.396 72.2141 338.978 70.7833C337.66 64.6207 336.143 58.4789 334.427 52.3581C332.711 46.2372 331.983 39.9456 332.242 33.4831C332.375 30.9218 331.063 29.9201 328.306 30.478C326.994 30.75 325.623 31.0952 324.192 31.5137C322.894 31.9183 321.515 32.1973 320.057 32.3506C317.286 32.7758 315.995 34.5204 316.183 37.5842C316.733 44.0957 317.224 50.6804 317.656 57.3384C318.087 63.9964 318.519 70.6545 318.951 77.3125C318.999 79.0503 319.055 80.8543 319.117 82.7247C319.18 84.5951 319.375 86.4515 319.702 88.294C321.404 96.8296 322.781 105.466 323.833 114.204C324.872 122.809 325.579 131.45 325.954 140.124C326.254 144.249 326.553 148.374 326.853 152.498C327.152 156.623 327.385 160.755 327.552 164.893ZM306.194 49.6946L306.173 49.4957C306.571 49.4539 306.909 49.4854 307.188 49.5901C307.586 49.5483 307.911 49.4472 308.162 49.2867C309.209 49.0426 310.35 49.0567 311.585 49.3291C312.806 49.4689 313.539 48.7885 313.784 47.2881C314.119 45.3759 314.182 43.4253 313.973 41.4362C313.883 39.3007 313.461 37.1999 312.707 35.134C312.533 34.7501 312.181 34.5861 311.65 34.6418C311.252 34.6836 310.855 34.7255 310.457 34.7673C308.349 35.1229 306.241 35.4785 304.134 35.8341C302.145 36.0431 300.089 36.2591 297.968 36.4821C296.669 36.8867 295.811 37.6473 295.392 38.7639C294.414 42.2183 294.707 45.003 296.27 47.1178C297.819 49.1001 300.324 49.9764 303.786 49.7466C304.184 49.7048 304.582 49.663 304.979 49.6212C305.377 49.5794 305.782 49.6038 306.194 49.6946ZM315.374 188.697L315.395 188.895C316.721 188.756 318.047 188.617 319.373 188.477C320.845 188.457 322.252 188.443 323.591 188.436C325.978 188.185 326.966 186.741 326.555 184.103C325.976 179.873 325.405 175.71 324.84 171.613C324.394 167.37 324.154 163.172 324.12 159.02C324.051 150.715 323.791 142.497 323.338 134.366C322.886 126.236 322.029 118.081 320.767 109.901C320.16 105.407 319.421 100.926 318.55 96.4593C317.678 91.9926 317.138 87.4911 316.929 82.9547C316.707 78.2857 316.285 73.6376 315.665 69.0105C315.177 64.3694 314.895 59.7737 314.819 55.2234C314.673 52.5574 313.26 51.2311 310.58 51.2447C308.577 51.3211 306.581 51.4639 304.592 51.6729C302.589 51.7494 300.652 51.8189 298.782 51.8814C296.381 51.9997 294.615 53.0567 293.484 55.0525C292.339 56.9157 291.341 58.8976 290.489 60.9981C289.77 63.0847 289.051 65.1713 288.332 67.2579C286.607 72.5338 284.397 77.6595 281.703 82.6351C279.127 87.4641 277.057 92.6422 275.493 98.1693C275.102 99.5511 274.184 100.385 272.739 100.671C271.28 100.824 269.951 100.294 268.751 99.079C267.23 97.362 265.715 95.7112 264.208 94.1267C262.687 92.4097 261.292 90.6124 260.022 88.7348C255.493 82.6414 250.721 76.7748 245.704 71.135C240.687 65.4952 235.729 59.7822 230.831 53.9958C230.056 53.0047 229.149 52.0275 228.109 51.0642C227.056 49.9683 225.813 49.6297 224.383 50.0482C222.673 50.362 220.963 50.6757 219.253 50.9895C217.662 51.1568 215.997 51.2647 214.259 51.3133C211.845 51.2989 210.644 52.6317 210.658 55.3117C210.706 57.0494 210.821 58.7803 211.002 60.5041C211.183 62.2279 211.232 63.9657 211.148 65.7174C210.854 73.1221 211.222 80.457 212.254 87.7223C213.405 94.8411 214.237 102.127 214.753 109.581C215.087 115.311 215.62 121.02 216.352 126.708C217.084 132.396 217.491 138.185 217.574 144.075C217.824 149.009 217.949 154.024 217.948 159.118C218.08 164.199 218.875 169.21 220.333 174.151C221.791 179.093 222.983 184.062 223.911 189.059C224.838 194.056 225.102 199.123 224.704 204.259C224.662 206.409 225.502 207.393 227.226 207.212C229.76 207.08 232.22 206.888 234.607 206.637C237.007 206.519 239.373 206.069 241.704 205.288C244.433 204.465 245.917 202.633 246.154 199.793C246.58 197.469 246.954 195.284 247.276 193.24C247.716 191.048 248.082 188.798 248.376 186.488C248.921 181.47 249.4 176.459 249.812 171.455C250.225 166.451 249.769 161.472 248.443 156.516C247.983 154.688 247.729 152.905 247.68 151.167C247.75 149.283 247.827 147.465 247.911 145.713C247.904 144.373 248.543 143.434 249.827 142.897C253.589 141.697 257.232 141.918 260.756 143.558C264.28 145.199 266.848 147.946 268.46 151.798C268.648 152.315 268.836 152.831 269.025 153.348C269.213 153.864 269.402 154.381 269.59 154.897C269.925 155.532 270.207 156.307 270.437 157.221C270.786 157.989 271.425 158.324 272.353 158.226C273.149 158.143 273.784 157.808 274.258 157.222C274.733 156.636 275.135 155.99 275.463 155.285C275.923 154.567 276.245 153.795 276.426 152.972C276.74 152.135 276.988 151.304 277.17 150.481C277.652 148.687 278.207 146.953 278.835 145.278C279.582 143.457 280.409 141.761 281.317 140.191C281.896 139.325 282.542 138.453 283.254 137.574C284.085 136.548 285.111 136.105 286.332 136.245C287.421 136.399 288.087 136.999 288.331 138.046C288.708 139.079 289.078 140.045 289.44 140.946C289.775 141.581 289.984 142.296 290.068 143.092C290.152 143.887 290.235 144.683 290.319 145.479C290.918 151.181 291.511 156.816 292.096 162.386C292.814 167.941 293.731 173.475 294.847 178.989C295.635 182.66 296.915 185.274 298.687 186.831C300.592 188.373 303.29 189.162 306.779 189.198C308.252 189.177 309.717 189.09 311.176 188.937C312.648 188.916 314.048 188.836 315.374 188.697ZM215.331 161.002C215.387 158.985 215.262 155.244 214.956 149.78C214.636 144.183 214.218 137.657 213.703 130.204C213.187 122.75 212.578 115.038 211.874 107.068C211.289 98.9514 210.627 91.3791 209.889 84.3511C209.283 77.3092 208.736 71.4677 208.248 66.8266C207.76 62.1855 207.356 59.6137 207.035 59.1112C206.461 66.4111 206.485 73.6483 207.105 80.8228C207.725 87.9973 208.47 95.0915 209.342 102.106C210.359 109.238 211.384 116.437 212.416 123.702C213.434 130.835 213.789 138.038 213.48 145.31C213.214 150.432 213.831 155.663 215.331 161.002ZM357.512 174.414C358.503 171.092 358.859 168.105 358.581 165.453C358.4 161.182 357.947 156.872 357.222 152.524C356.497 148.176 355.712 143.901 354.868 139.7C353.683 133.523 352.107 127.455 350.14 121.494C348.159 115.401 346.833 109.172 346.165 102.808C346.053 101.747 345.816 100.766 345.453 99.8657C345.209 98.8189 344.965 97.772 344.721 96.7251C344.644 97.2694 344.808 99.4644 345.212 103.31C345.735 107.009 346.428 111.695 347.293 117.369C348.143 122.911 349.095 128.777 350.148 134.967C351.201 141.158 352.226 147.083 353.223 152.743C354.22 158.403 355.127 163.202 355.942 167.138C356.758 171.074 357.281 173.499 357.512 174.414Z" fill="white"/>
<path d="M236.317 149.654C236.317 150.67 236.043 151.607 235.496 152.467C234.949 153.248 234.793 154.185 235.028 155.279C234.715 155.826 234.285 156.256 233.739 156.568C233.27 156.881 233.114 157.467 233.27 158.326C231.629 159.185 230.106 160.279 228.699 161.607C227.371 162.857 225.926 164.068 224.364 165.24C223.426 165.943 222.606 166.451 221.903 166.764C221.278 166.998 220.496 167.389 219.559 167.935L216.629 169.81C215.301 170.514 213.934 171.217 212.528 171.92C211.199 172.623 209.989 173.521 208.895 174.615C207.254 174.693 205.574 175.123 203.856 175.904C202.137 176.764 200.496 177.506 198.934 178.131C198.309 178.365 197.684 178.521 197.059 178.599C196.434 178.756 195.809 178.99 195.184 179.303L193.309 180.123C192.215 180.67 190.926 181.217 189.442 181.764C187.957 182.389 186.629 182.701 185.457 182.701C184.754 183.014 184.168 183.56 183.699 184.342C181.121 185.201 178.465 185.865 175.731 186.334C172.996 186.803 170.34 187.545 167.762 188.56C166.903 188.951 166.004 189.459 165.067 190.084C164.207 190.787 163.27 191.099 162.254 191.021C162.02 191.412 161.864 191.881 161.785 192.428C161.707 192.974 161.59 193.521 161.434 194.068H161.082C160.77 194.068 160.614 193.912 160.614 193.599C160.692 193.287 160.574 193.131 160.262 193.131C160.028 193.131 159.871 193.17 159.793 193.248C158.778 193.482 157.801 193.678 156.864 193.834C156.004 193.99 155.028 194.068 153.934 194.068C153.309 194.068 152.293 193.99 150.887 193.834C149.559 193.678 148.582 193.482 147.957 193.248C147.489 193.014 147.098 192.584 146.785 191.959C146.473 191.334 146.16 190.67 145.848 189.967C145.614 189.264 145.379 188.521 145.145 187.74C144.989 187.037 144.832 186.451 144.676 185.982C144.91 185.123 145.301 184.42 145.848 183.873C146.395 183.326 146.824 182.623 147.137 181.764C147.84 181.685 148.543 181.568 149.246 181.412C149.949 181.256 150.653 181.217 151.356 181.295C153.778 180.592 156.199 179.889 158.621 179.185C161.121 178.56 163.582 177.896 166.004 177.193C168.426 176.49 170.809 175.709 173.153 174.849C175.496 173.99 177.762 172.935 179.949 171.685H182.41C183.817 170.904 185.379 170.24 187.098 169.693C188.817 169.146 190.223 168.248 191.317 166.998C193.895 166.451 196.59 165.709 199.403 164.771C202.215 163.834 204.559 162.349 206.434 160.318C207.606 160.162 208.621 159.889 209.481 159.498C210.34 159.029 211.16 158.56 211.942 158.092L214.285 156.568C215.067 156.021 215.965 155.592 216.981 155.279C217.606 154.654 218.192 153.99 218.739 153.287C219.285 152.584 219.949 151.998 220.731 151.529C220.496 150.279 219.871 149.342 218.856 148.717C217.84 148.092 216.942 147.349 216.16 146.49H213.582C211.551 145.24 209.364 144.303 207.02 143.678C204.754 142.974 202.489 142.232 200.223 141.451C200.067 141.373 199.871 141.334 199.637 141.334C199.09 141.334 198.739 141.529 198.582 141.92C198.504 142.31 198.192 142.467 197.645 142.389C196.942 141.92 196.199 141.646 195.418 141.568C194.637 141.412 193.817 141.334 192.957 141.334C191.864 141.334 190.77 141.412 189.676 141.568C188.66 141.646 187.606 141.685 186.512 141.685C185.965 141.685 185.418 141.646 184.871 141.568C184.324 141.49 183.778 141.295 183.231 140.982H181.707C180.067 140.982 178.426 141.06 176.785 141.217C175.223 141.295 173.66 141.334 172.098 141.334C171.239 141.334 170.418 141.334 169.637 141.334C168.856 141.256 168.074 141.139 167.293 140.982C165.653 141.764 163.895 142.31 162.02 142.623C160.145 142.935 158.192 143.17 156.16 143.326C154.207 143.482 152.254 143.639 150.301 143.795C148.348 143.873 146.473 144.068 144.676 144.381C144.207 144.303 143.739 144.264 143.27 144.264C142.879 144.185 142.489 144.146 142.098 144.146C141.707 144.146 141.278 144.185 140.809 144.264C140.418 144.264 140.028 144.303 139.637 144.381C138.621 143.287 137.371 142.506 135.887 142.037C134.481 141.49 133.074 141.139 131.668 140.982C130.574 139.654 129.754 138.326 129.207 136.998C128.739 135.592 128.426 134.029 128.27 132.31H128.739C129.285 132.31 129.52 132.037 129.442 131.49C129.442 130.943 129.637 130.474 130.028 130.084C130.418 129.615 130.926 129.303 131.551 129.146C132.254 128.912 132.918 128.678 133.543 128.443C134.168 128.209 134.754 127.935 135.301 127.623C135.926 127.232 136.395 126.646 136.707 125.865H138.231C138.543 125.865 138.856 125.904 139.168 125.982C139.559 125.982 139.871 126.099 140.106 126.334C140.418 126.021 140.809 125.748 141.278 125.514C141.746 125.279 142.176 125.045 142.567 124.81C143.035 124.576 143.426 124.303 143.739 123.99C144.051 123.678 144.246 123.209 144.324 122.584C144.403 122.818 144.598 122.935 144.91 122.935C145.223 122.935 145.496 122.857 145.731 122.701C146.043 122.545 146.395 122.506 146.785 122.584C147.176 121.49 147.84 120.904 148.778 120.826C149.715 120.748 150.574 120.474 151.356 120.006C151.903 119.693 152.41 119.342 152.879 118.951C153.348 118.482 153.856 118.053 154.403 117.662L161.434 112.271L172.215 104.068C175.809 101.334 179.481 98.7948 183.231 96.451C183.387 95.9823 183.621 95.6307 183.934 95.3963C184.246 95.1619 184.559 94.9276 184.871 94.6932C185.184 94.3807 185.418 94.0682 185.574 93.7557C185.809 93.4432 185.887 92.9744 185.809 92.3494C186.903 92.1151 187.723 91.6854 188.27 91.0604C188.895 90.4354 189.442 89.7713 189.91 89.0682C190.379 88.2869 190.848 87.5448 191.317 86.8416C191.864 86.0604 192.567 85.4744 193.426 85.0838C193.348 84.8494 193.309 84.4979 193.309 84.0291C193.309 83.4041 193.348 82.7791 193.426 82.1541C193.582 81.5291 193.895 80.9823 194.364 80.5135C193.66 78.8729 192.449 77.701 190.731 76.9979C189.012 76.2166 187.371 75.5526 185.809 75.0057H185.457C185.067 75.0057 184.832 75.201 184.754 75.5916C184.754 75.9041 184.559 76.1385 184.168 76.2948C182.918 75.9823 181.512 75.826 179.949 75.826C178.387 75.826 176.824 75.9432 175.262 76.1776C173.778 76.4119 172.254 76.451 170.692 76.2948C170.457 76.6073 170.184 76.9198 169.871 77.2323C169.637 77.5448 169.324 77.8182 168.934 78.0526C167.293 78.1307 165.653 78.3651 164.012 78.7557L159.09 79.9276L156.395 80.5135C156.004 80.6698 155.731 80.9432 155.574 81.3338C155.418 81.7244 155.301 82.1541 155.223 82.6229C154.754 82.5448 154.442 82.3494 154.285 82.0369C154.207 81.7244 153.934 81.4901 153.465 81.3338C151.668 82.4276 149.715 83.326 147.606 84.0291C145.574 84.7323 143.739 85.826 142.098 87.3104C141.551 86.6854 140.77 86.3729 139.754 86.3729C138.895 86.3729 137.957 86.6463 136.942 87.1932C135.926 87.7401 135.301 88.4432 135.067 89.3026C134.285 89.1463 133.699 89.0682 133.309 89.0682C132.449 89.0682 131.707 89.3026 131.082 89.7713C130.535 90.2401 129.989 90.7869 129.442 91.4119C128.895 91.9588 128.309 92.5057 127.684 93.0526C127.059 93.5994 126.278 93.9119 125.34 93.9901C125.34 94.3807 125.34 94.8104 125.34 95.2791C125.418 95.6698 125.457 96.0994 125.457 96.5682C125.457 100.084 125.262 103.599 124.871 107.115C124.481 110.553 124.285 114.029 124.285 117.545C124.285 118.326 124.325 119.107 124.403 119.889C124.481 120.592 124.52 121.373 124.52 122.232C124.52 122.467 124.325 122.974 123.934 123.756C123.621 124.537 123.387 125.123 123.231 125.514C123.543 126.373 123.66 127.232 123.582 128.092C123.582 128.951 123.778 129.771 124.168 130.553C123.465 131.178 123.114 132.037 123.114 133.131C123.114 133.599 123.114 134.068 123.114 134.537C123.192 135.006 123.231 135.474 123.231 135.943V137.349C122.996 138.912 122.84 140.514 122.762 142.154C122.684 143.717 122.645 145.279 122.645 146.842C122.645 147.545 122.645 148.756 122.645 150.474C122.723 152.115 122.84 153.99 122.996 156.099C123.153 158.131 123.387 160.24 123.7 162.428C124.012 164.615 124.403 166.646 124.871 168.521C125.418 170.318 126.082 171.803 126.864 172.974C127.645 174.146 128.582 174.732 129.676 174.732C129.91 174.732 130.184 174.693 130.496 174.615C130.887 174.537 131.082 174.342 131.082 174.029C131.082 173.717 131.004 173.443 130.848 173.209C130.77 172.974 130.731 172.701 130.731 172.389L130.848 172.154C131.473 172.467 132.137 172.662 132.84 172.74C133.621 172.818 134.403 172.896 135.184 172.974C135.965 173.053 136.707 173.17 137.41 173.326C138.114 173.56 138.739 173.99 139.285 174.615C138.973 175.24 138.817 175.904 138.817 176.607C138.817 177.545 139.051 178.404 139.52 179.185C139.989 180.045 140.301 180.904 140.457 181.764C138.973 182.232 137.606 182.74 136.356 183.287C135.184 183.912 134.012 184.459 132.84 184.928C131.668 185.474 130.418 185.943 129.09 186.334C127.762 186.803 126.239 187.115 124.52 187.271C123.426 186.568 122.489 185.943 121.707 185.396C120.926 184.849 119.871 184.498 118.543 184.342C116.512 181.607 114.832 178.521 113.504 175.084C112.176 171.724 111.121 168.209 110.34 164.537C109.637 160.865 109.129 157.193 108.817 153.521C108.582 149.771 108.465 146.256 108.465 142.974C108.465 139.381 108.582 135.826 108.817 132.31C109.129 128.717 109.52 125.123 109.989 121.529C110.145 120.435 110.301 119.342 110.457 118.248C110.614 117.076 110.77 115.943 110.926 114.849C111.082 114.459 111.2 114.029 111.278 113.56C111.434 113.014 111.512 112.545 111.512 112.154C111.512 110.826 111.473 109.498 111.395 108.17C111.317 106.842 111.278 105.553 111.278 104.303C111.278 102.349 111.395 100.357 111.629 98.326C111.707 97.9354 111.825 97.4276 111.981 96.8026C112.215 96.1776 112.332 95.6307 112.332 95.1619C112.332 94.5369 112.176 94.1073 111.864 93.8729C111.551 93.6385 111.278 93.2479 111.043 92.701C111.278 91.9198 111.473 91.1776 111.629 90.4744C111.785 89.6932 111.864 88.9119 111.864 88.1307C111.864 86.6463 111.59 85.3573 111.043 84.2635C111.434 82.2323 112.02 80.2401 112.801 78.2869C113.582 76.3338 114.95 74.8494 116.903 73.8338C118.465 73.9119 120.028 74.0682 121.59 74.3026C123.231 74.5369 124.637 75.201 125.809 76.2948C126.356 75.9823 126.981 75.7869 127.684 75.7088L129.91 75.4744C130.692 75.3963 131.395 75.2791 132.02 75.1229C132.645 74.8885 133.192 74.4588 133.66 73.8338C135.223 73.5213 136.903 73.0916 138.699 72.5448C140.496 71.9198 142.059 71.2166 143.387 70.4354H145.965C146.512 70.0448 147.137 69.7713 147.84 69.6151L150.067 69.0291C150.848 68.7948 151.551 68.5604 152.176 68.326C152.879 68.0916 153.426 67.701 153.817 67.1541H154.285C156.082 67.1541 157.84 66.7635 159.559 65.9823C161.278 65.201 162.957 64.4979 164.598 63.8729C164.989 63.7166 165.574 63.4432 166.356 63.0526C167.215 62.6619 167.801 62.4666 168.114 62.4666C169.207 62.3104 170.301 62.2323 171.395 62.2323C172.489 62.1541 173.582 61.9979 174.676 61.7635C177.176 61.3729 179.637 60.9432 182.059 60.4744C184.559 59.9276 187.059 59.6541 189.559 59.6541C190.418 59.6541 191.199 59.6932 191.903 59.7713C192.684 59.7713 193.504 59.8104 194.364 59.8885C194.442 60.201 194.637 60.4744 194.949 60.7088C195.262 60.8651 195.535 61.0213 195.77 61.1776C196.082 61.3338 196.356 61.5682 196.59 61.8807C196.824 62.1151 196.903 62.4666 196.824 62.9354C196.981 63.0916 197.137 63.1698 197.293 63.1698C197.528 63.1698 197.723 63.0526 197.879 62.8182C198.114 62.5838 198.426 62.4666 198.817 62.4666H199.403C200.418 63.5604 201.395 64.6151 202.332 65.6307C203.348 66.5682 204.598 67.3494 206.082 67.9744C206.707 70.3182 207.449 72.6229 208.309 74.8885C209.168 77.1541 209.598 79.576 209.598 82.1541C209.598 83.7166 209.364 85.2401 208.895 86.7244C207.801 87.2713 207.02 88.1307 206.551 89.3026C206.082 90.4744 205.653 91.6073 205.262 92.701C203.074 93.7948 201.239 95.2401 199.754 97.0369C198.27 98.8338 196.746 100.631 195.184 102.428H193.309C192.996 102.428 192.762 102.545 192.606 102.779L191.551 103.951C190.848 104.576 190.067 105.201 189.207 105.826C188.426 106.451 187.84 107.271 187.449 108.287C185.028 109.615 182.684 111.099 180.418 112.74C178.231 114.381 176.121 116.099 174.09 117.896C173.231 118.599 172.371 119.42 171.512 120.357C170.653 121.217 169.793 121.959 168.934 122.584C168.465 122.974 167.918 123.326 167.293 123.639C166.746 123.873 166.239 124.185 165.77 124.576C164.754 125.357 163.817 126.178 162.957 127.037C162.098 127.818 161.199 128.56 160.262 129.264C163.778 129.107 167.332 129.029 170.926 129.029C174.52 128.951 178.074 128.873 181.59 128.795C183.387 128.795 185.145 128.756 186.864 128.678C188.582 128.521 190.34 128.443 192.137 128.443C192.449 128.443 192.723 128.521 192.957 128.678C193.192 128.756 193.465 128.834 193.778 128.912C195.106 129.146 196.278 129.42 197.293 129.732C201.043 130.435 204.793 131.06 208.543 131.607C212.293 132.154 215.965 133.053 219.559 134.303C220.574 134.693 221.317 135.123 221.785 135.592C222.332 136.06 223.27 136.178 224.598 135.943C225.692 137.037 226.864 137.896 228.114 138.521C229.442 139.146 230.77 139.693 232.098 140.162C233.114 141.724 234.051 143.209 234.91 144.615C235.848 146.021 236.317 147.701 236.317 149.654Z" fill="#F88D2B"/>
</svg>
