<svg width="54" height="36" viewBox="0 0 54 36" fill="none" xmlns="http://www.w3.org/2000/svg">
<path d="M36 36C45.9411 36 54 27.9411 54 18C54 8.05888 45.9411 0 36 0C32.7214 0 29.6476 0.876549 27 2.40808C32.3802 5.52037 36 11.3375 36 18C36 24.6625 32.3802 30.4796 27 33.5919C29.6476 35.1235 32.7214 36 36 36Z" fill="#2E7B70"/>
<path fill-rule="evenodd" clip-rule="evenodd" d="M27 2.40808C21.6198 5.52036 18 11.3375 18 18C18 24.6625 21.6198 30.4796 27 33.5919C24.3524 35.1235 21.2786 36 18 36C8.05888 36 0 27.9411 0 18C0 8.05888 8.05888 0 18 0C21.2786 0 24.3524 0.876549 27 2.40808Z" fill="#F88D2B"/>
<path d="M27 2.40808C21.6198 5.52036 18 11.3375 18 18C18 24.6625 21.6198 30.4796 27 33.5919C32.3802 30.4796 36 24.6625 36 18C36 11.3375 32.3802 5.52037 27 2.40808Z" fill="#FFF8D3"/>
</svg>
