<svg width="1002" height="1002" viewBox="0 0 1002 1002" fill="none" xmlns="http://www.w3.org/2000/svg">
<g clip-path="url(#clip0_812_622)">
<rect x="-135.75" y="571.71" width="100.5" height="100.5" transform="rotate(-45 -135.75 571.71)" stroke="black" stroke-width="0.5"/>
<rect x="-65.0391" y="501" width="100.5" height="100.5" transform="rotate(-45 -65.0391 501)" stroke="black" stroke-width="0.5"/>
<rect x="5.67135" y="430.29" width="100.5" height="100.5" transform="rotate(-45 5.67135 430.29)" stroke="black" stroke-width="0.5"/>
<rect x="76.3823" y="359.579" width="100.5" height="100.5" transform="rotate(-45 76.3823 359.579)" stroke="black" stroke-width="0.5"/>
<rect x="147.093" y="288.868" width="100.5" height="100.5" transform="rotate(-45 147.093 288.868)" stroke="black" stroke-width="0.5"/>
<rect x="217.804" y="218.157" width="100.5" height="100.5" transform="rotate(-45 217.804 218.157)" stroke="black" stroke-width="0.5"/>
<rect x="288.514" y="147.447" width="100.5" height="100.5" transform="rotate(-45 288.514 147.447)" stroke="black" stroke-width="0.5"/>
<rect x="359.225" y="76.7358" width="100.5" height="100.5" transform="rotate(-45 359.225 76.7358)" stroke="black" stroke-width="0.5"/>
<rect x="429.936" y="6.02539" width="100.5" height="100.5" transform="rotate(-45 429.936 6.02539)" stroke="black" stroke-width="0.5"/>
<rect x="500.646" y="-64.6855" width="100.5" height="100.5" transform="rotate(-45 500.646 -64.6855)" stroke="black" stroke-width="0.5"/>
<rect x="-65.0391" y="642.421" width="100.5" height="100.5" transform="rotate(-45 -65.0391 642.421)" stroke="black" stroke-width="0.5"/>
<rect x="5.67135" y="571.71" width="100.5" height="100.5" transform="rotate(-45 5.67135 571.71)" stroke="black" stroke-width="0.5"/>
<rect x="76.3823" y="501" width="100.5" height="100.5" transform="rotate(-45 76.3823 501)" stroke="black" stroke-width="0.5"/>
<rect x="147.093" y="430.29" width="100.5" height="100.5" transform="rotate(-45 147.093 430.29)" stroke="black" stroke-width="0.5"/>
<rect x="217.804" y="359.579" width="100.5" height="100.5" transform="rotate(-45 217.804 359.579)" stroke="black" stroke-width="0.5"/>
<rect x="288.514" y="288.868" width="100.5" height="100.5" transform="rotate(-45 288.514 288.868)" stroke="black" stroke-width="0.5"/>
<rect x="359.225" y="218.157" width="100.5" height="100.5" transform="rotate(-45 359.225 218.157)" stroke="black" stroke-width="0.5"/>
<rect x="429.936" y="147.447" width="100.5" height="100.5" transform="rotate(-45 429.936 147.447)" stroke="black" stroke-width="0.5"/>
<rect x="500.646" y="76.7358" width="100.5" height="100.5" transform="rotate(-45 500.646 76.7358)" stroke="black" stroke-width="0.5"/>
<rect x="571.357" y="6.02539" width="100.5" height="100.5" transform="rotate(-45 571.357 6.02539)" stroke="black" stroke-width="0.5"/>
<rect x="5.67135" y="713.132" width="100.5" height="100.5" transform="rotate(-45 5.67135 713.132)" stroke="black" stroke-width="0.5"/>
<rect x="76.3823" y="642.421" width="100.5" height="100.5" transform="rotate(-45 76.3823 642.421)" stroke="black" stroke-width="0.5"/>
<rect x="147.093" y="571.71" width="100.5" height="100.5" transform="rotate(-45 147.093 571.71)" stroke="black" stroke-width="0.5"/>
<rect x="217.804" y="501" width="100.5" height="100.5" transform="rotate(-45 217.804 501)" stroke="black" stroke-width="0.5"/>
<rect x="288.514" y="430.29" width="100.5" height="100.5" transform="rotate(-45 288.514 430.29)" stroke="black" stroke-width="0.5"/>
<rect x="359.225" y="359.579" width="100.5" height="100.5" transform="rotate(-45 359.225 359.579)" stroke="black" stroke-width="0.5"/>
<rect x="429.936" y="288.868" width="100.5" height="100.5" transform="rotate(-45 429.936 288.868)" stroke="black" stroke-width="0.5"/>
<rect x="500.646" y="218.157" width="100.5" height="100.5" transform="rotate(-45 500.646 218.157)" stroke="black" stroke-width="0.5"/>
<rect x="571.357" y="147.447" width="100.5" height="100.5" transform="rotate(-45 571.357 147.447)" stroke="black" stroke-width="0.5"/>
<rect x="642.068" y="76.7358" width="100.5" height="100.5" transform="rotate(-45 642.068 76.7358)" stroke="black" stroke-width="0.5"/>
<rect x="76.3823" y="783.843" width="100.5" height="100.5" transform="rotate(-45 76.3823 783.843)" stroke="black" stroke-width="0.5"/>
<rect x="147.093" y="713.132" width="100.5" height="100.5" transform="rotate(-45 147.093 713.132)" stroke="black" stroke-width="0.5"/>
<rect x="217.804" y="642.421" width="100.5" height="100.5" transform="rotate(-45 217.804 642.421)" stroke="black" stroke-width="0.5"/>
<rect x="288.514" y="571.71" width="100.5" height="100.5" transform="rotate(-45 288.514 571.71)" stroke="black" stroke-width="0.5"/>
<rect x="359.225" y="501" width="100.5" height="100.5" transform="rotate(-45 359.225 501)" stroke="black" stroke-width="0.5"/>
<rect x="429.936" y="430.29" width="100.5" height="100.5" transform="rotate(-45 429.936 430.29)" stroke="black" stroke-width="0.5"/>
<rect x="500.646" y="359.579" width="100.5" height="100.5" transform="rotate(-45 500.646 359.579)" stroke="black" stroke-width="0.5"/>
<rect x="571.357" y="288.868" width="100.5" height="100.5" transform="rotate(-45 571.357 288.868)" stroke="black" stroke-width="0.5"/>
<rect x="642.068" y="218.157" width="100.5" height="100.5" transform="rotate(-45 642.068 218.157)" stroke="black" stroke-width="0.5"/>
<rect x="712.778" y="147.447" width="100.5" height="100.5" transform="rotate(-45 712.778 147.447)" stroke="black" stroke-width="0.5"/>
<rect x="147.093" y="854.553" width="100.5" height="100.5" transform="rotate(-45 147.093 854.553)" stroke="black" stroke-width="0.5"/>
<rect x="217.804" y="783.843" width="100.5" height="100.5" transform="rotate(-45 217.804 783.843)" stroke="black" stroke-width="0.5"/>
<rect x="288.514" y="713.132" width="100.5" height="100.5" transform="rotate(-45 288.514 713.132)" stroke="black" stroke-width="0.5"/>
<rect x="359.225" y="642.421" width="100.5" height="100.5" transform="rotate(-45 359.225 642.421)" stroke="black" stroke-width="0.5"/>
<rect x="429.936" y="571.71" width="100.5" height="100.5" transform="rotate(-45 429.936 571.71)" stroke="black" stroke-width="0.5"/>
<rect x="500.646" y="501" width="100.5" height="100.5" transform="rotate(-45 500.646 501)" stroke="black" stroke-width="0.5"/>
<rect x="571.357" y="430.29" width="100.5" height="100.5" transform="rotate(-45 571.357 430.29)" stroke="black" stroke-width="0.5"/>
<rect x="642.068" y="359.579" width="100.5" height="100.5" transform="rotate(-45 642.068 359.579)" stroke="black" stroke-width="0.5"/>
<rect x="712.778" y="288.868" width="100.5" height="100.5" transform="rotate(-45 712.778 288.868)" stroke="black" stroke-width="0.5"/>
<rect x="783.489" y="218.157" width="100.5" height="100.5" transform="rotate(-45 783.489 218.157)" stroke="black" stroke-width="0.5"/>
<rect x="217.804" y="925.264" width="100.5" height="100.5" transform="rotate(-45 217.804 925.264)" stroke="black" stroke-width="0.5"/>
<rect x="288.514" y="854.553" width="100.5" height="100.5" transform="rotate(-45 288.514 854.553)" stroke="black" stroke-width="0.5"/>
<rect x="359.225" y="783.843" width="100.5" height="100.5" transform="rotate(-45 359.225 783.843)" stroke="black" stroke-width="0.5"/>
<rect x="429.936" y="713.132" width="100.5" height="100.5" transform="rotate(-45 429.936 713.132)" stroke="black" stroke-width="0.5"/>
<rect x="500.646" y="642.421" width="100.5" height="100.5" transform="rotate(-45 500.646 642.421)" stroke="black" stroke-width="0.5"/>
<rect x="571.357" y="571.71" width="100.5" height="100.5" transform="rotate(-45 571.357 571.71)" stroke="black" stroke-width="0.5"/>
<rect x="642.068" y="501" width="100.5" height="100.5" transform="rotate(-45 642.068 501)" stroke="black" stroke-width="0.5"/>
<rect x="712.778" y="430.29" width="100.5" height="100.5" transform="rotate(-45 712.778 430.29)" stroke="black" stroke-width="0.5"/>
<rect x="783.489" y="359.579" width="100.5" height="100.5" transform="rotate(-45 783.489 359.579)" stroke="black" stroke-width="0.5"/>
<rect x="854.2" y="288.868" width="100.5" height="100.5" transform="rotate(-45 854.2 288.868)" stroke="black" stroke-width="0.5"/>
<rect x="288.514" y="995.975" width="100.5" height="100.5" transform="rotate(-45 288.514 995.975)" stroke="black" stroke-width="0.5"/>
<rect x="359.225" y="925.264" width="100.5" height="100.5" transform="rotate(-45 359.225 925.264)" stroke="black" stroke-width="0.5"/>
<rect x="429.936" y="854.553" width="100.5" height="100.5" transform="rotate(-45 429.936 854.553)" stroke="black" stroke-width="0.5"/>
<rect x="500.646" y="783.843" width="100.5" height="100.5" transform="rotate(-45 500.646 783.843)" stroke="black" stroke-width="0.5"/>
<rect x="571.357" y="713.132" width="100.5" height="100.5" transform="rotate(-45 571.357 713.132)" stroke="black" stroke-width="0.5"/>
<rect x="642.068" y="642.421" width="100.5" height="100.5" transform="rotate(-45 642.068 642.421)" stroke="black" stroke-width="0.5"/>
<rect x="712.778" y="571.71" width="100.5" height="100.5" transform="rotate(-45 712.778 571.71)" stroke="black" stroke-width="0.5"/>
<rect x="783.489" y="501" width="100.5" height="100.5" transform="rotate(-45 783.489 501)" stroke="black" stroke-width="0.5"/>
<rect x="854.2" y="430.29" width="100.5" height="100.5" transform="rotate(-45 854.2 430.29)" stroke="black" stroke-width="0.5"/>
<rect x="924.91" y="359.579" width="100.5" height="100.5" transform="rotate(-45 924.91 359.579)" stroke="black" stroke-width="0.5"/>
<rect x="359.225" y="1066.69" width="100.5" height="100.5" transform="rotate(-45 359.225 1066.69)" stroke="black" stroke-width="0.5"/>
<rect x="429.936" y="995.975" width="100.5" height="100.5" transform="rotate(-45 429.936 995.975)" stroke="black" stroke-width="0.5"/>
<rect x="500.646" y="925.264" width="100.5" height="100.5" transform="rotate(-45 500.646 925.264)" stroke="black" stroke-width="0.5"/>
<rect x="571.357" y="854.553" width="100.5" height="100.5" transform="rotate(-45 571.357 854.553)" stroke="black" stroke-width="0.5"/>
<rect x="642.068" y="783.843" width="100.5" height="100.5" transform="rotate(-45 642.068 783.843)" stroke="black" stroke-width="0.5"/>
<rect x="712.778" y="713.132" width="100.5" height="100.5" transform="rotate(-45 712.778 713.132)" stroke="black" stroke-width="0.5"/>
<rect x="783.489" y="642.421" width="100.5" height="100.5" transform="rotate(-45 783.489 642.421)" stroke="black" stroke-width="0.5"/>
<rect x="854.2" y="571.71" width="100.5" height="100.5" transform="rotate(-45 854.2 571.71)" stroke="black" stroke-width="0.5"/>
<rect x="924.91" y="501" width="100.5" height="100.5" transform="rotate(-45 924.91 501)" stroke="black" stroke-width="0.5"/>
<rect x="995.621" y="430.29" width="100.5" height="100.5" transform="rotate(-45 995.621 430.29)" stroke="black" stroke-width="0.5"/>
<rect x="500.646" y="1066.69" width="100.5" height="100.5" transform="rotate(-45 500.646 1066.69)" stroke="black" stroke-width="0.5"/>
<rect x="571.357" y="995.975" width="100.5" height="100.5" transform="rotate(-45 571.357 995.975)" stroke="black" stroke-width="0.5"/>
<rect x="642.068" y="925.264" width="100.5" height="100.5" transform="rotate(-45 642.068 925.264)" stroke="black" stroke-width="0.5"/>
<rect x="712.778" y="854.553" width="100.5" height="100.5" transform="rotate(-45 712.778 854.553)" stroke="black" stroke-width="0.5"/>
<rect x="783.489" y="783.843" width="100.5" height="100.5" transform="rotate(-45 783.489 783.843)" stroke="black" stroke-width="0.5"/>
<rect x="854.2" y="713.132" width="100.5" height="100.5" transform="rotate(-45 854.2 713.132)" stroke="black" stroke-width="0.5"/>
<rect x="924.91" y="642.421" width="100.5" height="100.5" transform="rotate(-45 924.91 642.421)" stroke="black" stroke-width="0.5"/>
<rect x="995.621" y="571.71" width="100.5" height="100.5" transform="rotate(-45 995.621 571.71)" stroke="black" stroke-width="0.5"/>
<rect x="-135.75" y="430.29" width="100.5" height="100.5" transform="rotate(-45 -135.75 430.29)" stroke="black" stroke-width="0.5"/>
<rect x="-65.0391" y="359.579" width="100.5" height="100.5" transform="rotate(-45 -65.0391 359.579)" stroke="black" stroke-width="0.5"/>
<rect x="5.67135" y="288.868" width="100.5" height="100.5" transform="rotate(-45 5.67135 288.868)" stroke="black" stroke-width="0.5"/>
<rect x="76.3823" y="218.157" width="100.5" height="100.5" transform="rotate(-45 76.3823 218.157)" stroke="black" stroke-width="0.5"/>
<rect x="147.093" y="147.447" width="100.5" height="100.5" transform="rotate(-45 147.093 147.447)" stroke="black" stroke-width="0.5"/>
<rect x="217.804" y="76.7358" width="100.5" height="100.5" transform="rotate(-45 217.804 76.7358)" stroke="black" stroke-width="0.5"/>
<rect x="288.514" y="6.02539" width="100.5" height="100.5" transform="rotate(-45 288.514 6.02539)" stroke="black" stroke-width="0.5"/>
<rect x="359.225" y="-64.6855" width="100.5" height="100.5" transform="rotate(-45 359.225 -64.6855)" stroke="black" stroke-width="0.5"/>
<rect x="-136.247" y="4.94971" width="100.5" height="100.5" transform="rotate(-45 -136.247 4.94971)" stroke="black" stroke-width="0.5"/>
<rect x="-65.5362" y="-65.7612" width="100.5" height="100.5" transform="rotate(-45 -65.5362 -65.7612)" stroke="black" stroke-width="0.5"/>
<rect x="-136.247" y="146.371" width="100.5" height="100.5" transform="rotate(-45 -136.247 146.371)" stroke="black" stroke-width="0.5"/>
<rect x="-65.5362" y="75.6602" width="100.5" height="100.5" transform="rotate(-45 -65.5362 75.6602)" stroke="black" stroke-width="0.5"/>
<rect x="5.17477" y="4.94971" width="100.5" height="100.5" transform="rotate(-45 5.17477 4.94971)" stroke="black" stroke-width="0.5"/>
<rect x="75.8852" y="-65.7612" width="100.5" height="100.5" transform="rotate(-45 75.8852 -65.7612)" stroke="black" stroke-width="0.5"/>
<rect x="-136.247" y="287.792" width="100.5" height="100.5" transform="rotate(-45 -136.247 287.792)" stroke="black" stroke-width="0.5"/>
<rect x="-65.5362" y="217.082" width="100.5" height="100.5" transform="rotate(-45 -65.5362 217.082)" stroke="black" stroke-width="0.5"/>
<rect x="5.17477" y="146.371" width="100.5" height="100.5" transform="rotate(-45 5.17477 146.371)" stroke="black" stroke-width="0.5"/>
<rect x="75.8852" y="75.6602" width="100.5" height="100.5" transform="rotate(-45 75.8852 75.6602)" stroke="black" stroke-width="0.5"/>
<rect x="146.596" y="4.94971" width="100.5" height="100.5" transform="rotate(-45 146.596 4.94971)" stroke="black" stroke-width="0.5"/>
<rect x="217.307" y="-65.7612" width="100.5" height="100.5" transform="rotate(-45 217.307 -65.7612)" stroke="black" stroke-width="0.5"/>
<rect x="-135.536" y="713.132" width="100.5" height="100.5" transform="rotate(-45 -135.536 713.132)" stroke="black" stroke-width="0.5"/>
<rect x="-135.536" y="854.554" width="100.5" height="100.5" transform="rotate(-45 -135.536 854.554)" stroke="black" stroke-width="0.5"/>
<rect x="-64.8252" y="783.843" width="100.5" height="100.5" transform="rotate(-45 -64.8252 783.843)" stroke="black" stroke-width="0.5"/>
<rect x="-135.536" y="995.975" width="100.5" height="100.5" transform="rotate(-45 -135.536 995.975)" stroke="black" stroke-width="0.5"/>
<rect x="-64.8252" y="925.264" width="100.5" height="100.5" transform="rotate(-45 -64.8252 925.264)" stroke="black" stroke-width="0.5"/>
<rect x="5.88522" y="854.554" width="100.5" height="100.5" transform="rotate(-45 5.88522 854.554)" stroke="black" stroke-width="0.5"/>
<rect x="-64.8252" y="1066.69" width="100.5" height="100.5" transform="rotate(-45 -64.8252 1066.69)" stroke="black" stroke-width="0.5"/>
<rect x="5.88522" y="995.975" width="100.5" height="100.5" transform="rotate(-45 5.88522 995.975)" stroke="black" stroke-width="0.5"/>
<rect x="76.5962" y="925.264" width="100.5" height="100.5" transform="rotate(-45 76.5962 925.264)" stroke="black" stroke-width="0.5"/>
<rect x="76.5962" y="1066.69" width="100.5" height="100.5" transform="rotate(-45 76.5962 1066.69)" stroke="black" stroke-width="0.5"/>
<rect x="147.307" y="995.975" width="100.5" height="100.5" transform="rotate(-45 147.307 995.975)" stroke="black" stroke-width="0.5"/>
<rect x="218.017" y="1066.69" width="100.5" height="100.5" transform="rotate(-45 218.017 1066.69)" stroke="black" stroke-width="0.5"/>
<rect x="783.489" y="1066.69" width="100.5" height="100.5" transform="rotate(-45 783.489 1066.69)" stroke="black" stroke-width="0.5"/>
<rect x="854.2" y="995.975" width="100.5" height="100.5" transform="rotate(-45 854.2 995.975)" stroke="black" stroke-width="0.5"/>
<rect x="924.911" y="925.264" width="100.5" height="100.5" transform="rotate(-45 924.911 925.264)" stroke="black" stroke-width="0.5"/>
<rect x="995.621" y="854.554" width="100.5" height="100.5" transform="rotate(-45 995.621 854.554)" stroke="black" stroke-width="0.5"/>
<rect x="924.911" y="1066.69" width="100.5" height="100.5" transform="rotate(-45 924.911 1066.69)" stroke="black" stroke-width="0.5"/>
<rect x="995.621" y="995.975" width="100.5" height="100.5" transform="rotate(-45 995.621 995.975)" stroke="black" stroke-width="0.5"/>
<rect x="642.068" y="1066.69" width="100.5" height="100.5" transform="rotate(-45 642.068 1066.69)" stroke="black" stroke-width="0.5"/>
<rect x="712.778" y="995.975" width="100.5" height="100.5" transform="rotate(-45 712.778 995.975)" stroke="black" stroke-width="0.5"/>
<rect x="783.489" y="925.264" width="100.5" height="100.5" transform="rotate(-45 783.489 925.264)" stroke="black" stroke-width="0.5"/>
<rect x="854.2" y="854.554" width="100.5" height="100.5" transform="rotate(-45 854.2 854.554)" stroke="black" stroke-width="0.5"/>
<rect x="924.911" y="783.843" width="100.5" height="100.5" transform="rotate(-45 924.911 783.843)" stroke="black" stroke-width="0.5"/>
<rect x="995.621" y="713.132" width="100.5" height="100.5" transform="rotate(-45 995.621 713.132)" stroke="black" stroke-width="0.5"/>
<rect x="642.068" y="-64.4717" width="100.5" height="100.5" transform="rotate(-45 642.068 -64.4717)" stroke="black" stroke-width="0.5"/>
<rect x="712.778" y="6.23877" width="100.5" height="100.5" transform="rotate(-45 712.778 6.23877)" stroke="black" stroke-width="0.5"/>
<rect x="783.489" y="-64.4717" width="100.5" height="100.5" transform="rotate(-45 783.489 -64.4717)" stroke="black" stroke-width="0.5"/>
<rect x="783.489" y="76.9497" width="100.5" height="100.5" transform="rotate(-45 783.489 76.9497)" stroke="black" stroke-width="0.5"/>
<rect x="854.2" y="6.23877" width="100.5" height="100.5" transform="rotate(-45 854.2 6.23877)" stroke="black" stroke-width="0.5"/>
<rect x="924.911" y="-64.4717" width="100.5" height="100.5" transform="rotate(-45 924.911 -64.4717)" stroke="black" stroke-width="0.5"/>
<rect x="854.2" y="147.66" width="100.5" height="100.5" transform="rotate(-45 854.2 147.66)" stroke="black" stroke-width="0.5"/>
<rect x="924.911" y="76.9497" width="100.5" height="100.5" transform="rotate(-45 924.911 76.9497)" stroke="black" stroke-width="0.5"/>
<rect x="995.621" y="6.23877" width="100.5" height="100.5" transform="rotate(-45 995.621 6.23877)" stroke="black" stroke-width="0.5"/>
<rect x="924.911" y="218.371" width="100.5" height="100.5" transform="rotate(-45 924.911 218.371)" stroke="black" stroke-width="0.5"/>
<rect x="995.621" y="147.66" width="100.5" height="100.5" transform="rotate(-45 995.621 147.66)" stroke="black" stroke-width="0.5"/>
<rect x="995.621" y="289.082" width="100.5" height="100.5" transform="rotate(-45 995.621 289.082)" stroke="black" stroke-width="0.5"/>
</g>
<defs>
<clipPath id="clip0_812_622">
<rect width="1002" height="1002" fill="white"/>
</clipPath>
</defs>
</svg>
