<svg width="1470" height="68" viewBox="0 0 1470 68" fill="none" xmlns="http://www.w3.org/2000/svg">
<path d="M1430.54 2.80556C1438.59 2.10048 1447.71 1.29466 1450.85 0.791031C1453.99 0.388125 1459.89 0.0217968 1470 0.22325V68H-1V0.223226C5.89494 -0.278956 11.258 0.223095 11.258 0.223095C11.258 0.223095 23.5167 1.39539 34.2427 2.30193C44.9688 3.20847 59.832 4.82009 67.187 5.92808C74.542 6.93534 86.264 9.0506 93.236 10.4608C100.208 11.8709 110.168 14.1876 115.454 15.5978C120.741 17.008 130.93 19.9291 138.056 22.0443C145.181 24.2603 158.282 27.9872 167.169 30.5053C176.056 32.9228 188.621 36.2467 195.133 37.9591C201.646 39.6714 215.283 42.794 225.396 45.0099C235.509 47.2259 250.143 50.147 257.957 51.5572C265.772 52.9673 277.801 54.9819 284.772 56.0899C291.744 57.1978 302.93 58.8095 309.672 59.6153C316.414 60.5218 329.362 61.932 338.403 62.7378C347.443 63.5436 367.133 64.7523 382.073 65.4574C403.142 66.3639 415.477 66.3639 436.852 65.4574C452.022 64.7523 470.256 63.5436 477.458 62.7378C484.66 61.932 495.463 60.5218 501.592 59.716L502.932 59.518C508.968 58.6263 517.026 57.4359 521.512 56.5935C526.338 55.7877 540.282 52.8666 552.541 50.0463C564.799 47.3266 577.517 44.4056 580.888 43.5998C584.259 42.6932 591.997 41.1823 598.126 40.0743C604.255 38.8656 615.594 37.0526 623.409 35.9446C631.224 34.9373 641.413 33.5271 646.01 33.0235C650.607 32.5199 663.555 31.4119 674.741 30.5053C687.995 29.4981 708.681 28.9944 734.5 28.9944C760.319 28.9944 781.005 29.4981 794.259 30.5053C805.445 31.4119 818.393 32.5199 822.99 33.0235C827.587 33.5271 837.776 34.9373 845.591 36.0453C853.406 37.1533 864.898 38.9664 871.257 40.0743C877.539 41.1823 892.939 44.4056 905.35 47.2259C917.762 50.0463 933.085 53.471 939.444 54.7804C945.726 56.0898 956.989 58.1044 964.344 59.2124C971.699 60.3204 983.957 61.8313 991.542 62.7378C999.127 63.5436 1017.59 64.7523 1032.53 65.4574C1053.37 66.3639 1066.09 66.3639 1086.93 65.4574C1101.87 64.7523 1121.56 63.5436 1130.6 62.7378C1139.64 61.932 1152.59 60.5218 1159.33 59.6153C1166.07 58.8095 1177.26 57.1978 1184.23 56.0899C1191.2 54.9819 1203.23 52.9673 1211.04 51.5572C1218.86 50.147 1233.49 47.2259 1243.6 45.0099C1253.72 42.794 1267.35 39.6714 1273.87 37.9591C1280.38 36.2467 1293.02 32.9228 1301.83 30.5053C1310.64 27.9872 1323.82 24.2603 1330.94 22.0443C1338.07 19.9291 1348.26 17.008 1353.55 15.5978C1358.83 14.1876 1368.79 11.8709 1375.76 10.4608C1382.74 9.0506 1394.61 6.93534 1402.2 5.92808C1409.78 4.82009 1422.5 3.40992 1430.54 2.80556Z" fill="#D9D9D9"/>
</svg>
